<svg width="60" height="60" viewBox="0 0 60 60" xmlns="http://www.w3.org/2000/svg"><title>CECB0D72-83E1-439F-ACB8-670FBC79EA83</title><path d="M43.125 18.22v3.172c0 .743-.602 1.348-1.345 1.348h-3.173a1.344 1.344 0 0 1-1.344-1.348V18.22c0-.743.597-1.345 1.344-1.345h3.173c.743 0 1.345.602 1.345 1.345zM30 36.727a6.733 6.733 0 0 0 6.732-6.73A6.729 6.729 0 0 0 30 23.273 6.725 6.725 0 0 0 23.272 30 6.725 6.725 0 0 0 30 36.727zM40.653 28.5c.07.49.115.99.115 1.497 0 5.95-4.82 10.77-10.768 10.77-5.947 0-10.767-4.82-10.767-10.767 0-.51.044-1.007.115-1.497.067-.486.164-.958.294-1.418h-2.767v14.698c0 .742.603 1.345 1.345 1.345h23.56c.743 0 1.345-.603 1.345-1.345V27.085h-2.768c.125.46.225.932.296 1.415zM60 30c0 16.568-13.433 30-30 30S0 46.568 0 30C0 13.432 13.433 0 30 0s30 13.432 30 30zM47.5 16.537a4.037 4.037 0 0 0-4.038-4.037H16.538a4.037 4.037 0 0 0-4.038 4.037V43.46a4.038 4.038 0 0 0 4.038 4.04h26.924a4.038 4.038 0 0 0 4.038-4.04V16.537z" fill="#797979" fill-rule="evenodd"/></svg>