<svg width="110" height="27" viewBox="0 0 110 27" xmlns="http://www.w3.org/2000/svg"><title>43AAB3FF-EEA5-4647-B6C3-2DC6AFDA9A0B</title><g fill="none" fill-rule="evenodd"><path d="M51.17 16.682a3.895 3.895 0 0 1-1.426 1.48c-1.2.709-2.65.692-3.878.001a3.646 3.646 0 0 1-1.425-1.411c-.331-.594-.499-1.275-.499-2.025 0-1.157.366-2.095 1.12-2.868.753-.77 1.654-1.145 2.756-1.145a3.795 3.795 0 0 1 3.357 1.978c.351.627.529 1.298.529 1.995 0 .69-.18 1.362-.534 1.995m-3.238-8.025c-.928 0-1.782.203-2.54.605-.486.258-.938.6-1.352 1.022v-1.35h-2.1v15.41h2.1v-5.227c.44.414.915.748 1.419.999.762.38 1.608.571 2.512.571 1.61 0 3.003-.593 4.14-1.764 1.137-1.169 1.713-2.609 1.713-4.28 0-1.64-.582-3.062-1.728-4.228-1.148-1.166-2.55-1.758-4.164-1.758m16.705 4.567c.252-.69.586-1.225.997-1.593.695-.623 1.504-.926 2.473-.926.582 0 1.145.125 1.673.371.525.245.951.57 1.266.965.245.308.448.704.606 1.183h-7.015zm9.372 1.553c-.014-1.545-.438-2.856-1.26-3.897-1.159-1.475-2.727-2.223-4.662-2.223-1.883 0-3.408.732-4.533 2.175a6.14 6.14 0 0 0-1.33 3.87c0 1.532.528 2.923 1.567 4.135 1.053 1.228 2.525 1.85 4.375 1.85.83 0 1.586-.129 2.25-.384a5.644 5.644 0 0 0 1.8-1.124c.53-.488 1-1.134 1.4-1.92l.16-.32-1.778-.937-.175.293c-.4.667-.77 1.15-1.101 1.44a3.86 3.86 0 0 1-1.205.691 4.237 4.237 0 0 1-1.47.263c-1.038 0-1.886-.355-2.59-1.087-.635-.659-.988-1.466-1.074-2.46h9.63l-.004-.365zm17.823 1.975a3.668 3.668 0 0 1-1.423 1.411 3.95 3.95 0 0 1-1.969.526c-.68 0-1.324-.177-1.919-.527a3.897 3.897 0 0 1-1.427-1.48 4.047 4.047 0 0 1-.535-1.995c0-.697.179-1.368.53-1.994a3.808 3.808 0 0 1 1.416-1.46 3.81 3.81 0 0 1 1.945-.519c1.103 0 2.006.375 2.759 1.146.755.772 1.122 1.71 1.122 2.867 0 .75-.168 1.43-.5 2.025zm.41-6.472a5.413 5.413 0 0 0-1.348-1.018c-.762-.402-1.622-.605-2.557-.605-1.616 0-3.02.592-4.168 1.758-1.148 1.166-1.73 2.588-1.73 4.228 0 1.672.577 3.112 1.714 4.28 1.14 1.17 2.533 1.764 4.144 1.764.905 0 1.753-.192 2.52-.57a5.95 5.95 0 0 0 1.425-1.001v1.295h2.081V8.934h-2.08v1.346zm16.959-1.211c-.486-.273-.956-.412-1.398-.412-.575 0-1.131.175-1.655.519a4.376 4.376 0 0 0-.773.659v-.901h-2.13V20.41h2.13v-4c0-1.823.082-3.04.243-3.618.203-.725.495-1.26.867-1.591.362-.321.719-.478 1.092-.478.1 0 .284.028.586.159l.285.123 1.082-1.753-.329-.184z" fill="#393939"/><path d="M12.017 24.75a24.673 24.673 0 0 1-1.138-.848 5.646 5.646 0 0 1-3.361 1.106 5.683 5.683 0 0 1-5.677-5.677c0-1.207.532-2.196 1.149-3.343.879-1.634 1.875-3.487 1.875-6.55a2.655 2.655 0 0 1 2.653-2.651 2.655 2.655 0 0 1 2.652 2.652c0 1.236.164 2.273.416 3.18.802.05 1.578.325 2.23.791-.46-1.073-.805-2.31-.805-3.971 0-1.984-1.276-3.7-3.142-4.285.247-.636.625-1.13 1.126-1.47A.717.717 0 0 0 9.191 2.5c-.838.568-1.434 1.39-1.775 2.447a4.498 4.498 0 0 0-4.392 4.492c0 2.598-.841 4.163-1.657 5.679C.664 16.426 0 17.66 0 19.33c0 4.145 3.372 7.518 7.518 7.518a7.485 7.485 0 0 0 4.972-1.886 1.438 1.438 0 0 1-.473-.212" fill="#B9BF33"/><path d="M25.434 14.138c-.895-1.666-1.821-3.388-1.821-6.252a4.833 4.833 0 0 0-3.615-4.673c.232-.85.658-1.49 1.27-1.905a.717.717 0 0 0-.804-1.184c-.968.657-1.61 1.645-1.912 2.939a4.835 4.835 0 0 0-4.598 4.823c0 2.368-.633 3.955-1.36 5.376.084.053.168.107.248.166.606-.44 1.32-.71 2.064-.791.508-1.274.889-2.782.889-4.751a2.991 2.991 0 0 1 2.988-2.987 2.991 2.991 0 0 1 2.988 2.987c0 3.326 1.084 5.342 2.042 7.124.68 1.264 1.266 2.355 1.266 3.699a6.304 6.304 0 0 1-6.296 6.297 6.264 6.264 0 0 1-3.778-1.263c-.546.44-1.021.787-1.336 1.007a1.45 1.45 0 0 1-.199.116 8.1 8.1 0 0 0 5.313 1.981c4.487 0 8.138-3.65 8.138-8.138 0-1.806-.722-3.148-1.487-4.571" fill="#97C93C"/><path d="M10.32 14.863c.759 0 1.45.417 1.805 1.089a.81.81 0 1 0 1.436 0 2.035 2.035 0 0 1 1.804-1.09 2.04 2.04 0 0 1 2.038 2.039c0 1.687-2.416 4.073-4.56 5.667-2.145-1.593-4.561-3.98-4.561-5.667a2.04 2.04 0 0 1 2.038-2.038m5.045-1.623c-.944 0-1.846.363-2.523 1.006a3.66 3.66 0 0 0-2.522-1.006 3.665 3.665 0 0 0-3.66 3.66c0 3.172 4.762 6.665 5.718 7.334a.81.81 0 0 0 .93 0c.954-.669 5.718-4.162 5.718-7.333a3.665 3.665 0 0 0-3.661-3.661" fill="#E38EA5"/></g></svg>