<svg width="78" height="107" viewBox="0 0 78 107" xmlns="http://www.w3.org/2000/svg" xmlns:xlink="http://www.w3.org/1999/xlink"><title>9FF0F5BE-5294-4D14-9983-C1E560BFD530</title><defs><path id="a" d="M41.61 77.473V.269H.377v77.204H41.61z"/></defs><g fill="none" fill-rule="evenodd"><path d="M11.169 98.142A4.388 4.388 0 0 1 9.552 99.8c-1.359.795-3.002.776-4.393.001a4.11 4.11 0 0 1-1.614-1.582c-.376-.665-.566-1.429-.566-2.27 0-1.296.415-2.347 1.27-3.214.852-.863 1.874-1.283 3.122-1.283a4.298 4.298 0 0 1 3.803 2.217 4.49 4.49 0 0 1 .599 2.236c0 .775-.203 1.527-.604 2.237m-3.67-8.997c-1.05 0-2.019.229-2.877.679a6.241 6.241 0 0 0-1.531 1.145v-1.513H.71v17.275h2.38v-5.86a6.728 6.728 0 0 0 1.606 1.12 6.39 6.39 0 0 0 2.847.64c1.823 0 3.402-.665 4.691-1.978 1.287-1.31 1.94-2.924 1.94-4.797 0-1.84-.659-3.433-1.958-4.74-1.3-1.307-2.888-1.97-4.717-1.97m18.927 5.119c.285-.774.664-1.373 1.13-1.786.787-.698 1.703-1.038 2.8-1.038.66 0 1.298.14 1.896.416.595.275 1.078.64 1.435 1.082.278.345.508.79.687 1.326h-7.948zm10.618 1.741c-.016-1.731-.496-3.201-1.428-4.368-1.313-1.654-3.09-2.492-5.282-2.492-2.133 0-3.861.82-5.136 2.437a6.836 6.836 0 0 0-1.506 4.339c0 1.717.598 3.276 1.775 4.635 1.193 1.376 2.86 2.074 4.957 2.074.94 0 1.797-.145 2.549-.43a6.405 6.405 0 0 0 2.04-1.26c.599-.548 1.133-1.272 1.585-2.154l.182-.357-2.014-1.05-.199.328c-.452.747-.872 1.289-1.247 1.613-.372.32-.831.58-1.365.775a4.847 4.847 0 0 1-1.665.295c-1.177 0-2.137-.398-2.936-1.219-.719-.738-1.118-1.643-1.216-2.757h10.91l-.004-.409zm20.192 2.214a4.134 4.134 0 0 1-1.611 1.582 4.53 4.53 0 0 1-2.231.59c-.77 0-1.501-.2-2.174-.592a4.39 4.39 0 0 1-1.618-1.658 4.499 4.499 0 0 1-.605-2.237c0-.781.202-1.533.6-2.236a4.29 4.29 0 0 1 1.605-1.635 4.352 4.352 0 0 1 2.203-.582c1.25 0 2.272.42 3.126 1.284.856.866 1.27 1.918 1.27 3.213 0 .84-.19 1.604-.565 2.27zm.465-7.255a6.127 6.127 0 0 0-1.527-1.142c-.863-.45-1.838-.678-2.897-.678-1.832 0-3.42.664-4.722 1.971-1.3 1.307-1.96 2.901-1.96 4.74 0 1.874.654 3.488 1.942 4.797 1.29 1.313 2.87 1.978 4.695 1.978a6.436 6.436 0 0 0 2.854-.64 6.743 6.743 0 0 0 1.615-1.121v1.451h2.358V89.456H57.7v1.509zm19.214-1.358c-.55-.306-1.084-.461-1.584-.461-.651 0-1.282.196-1.875.581a4.97 4.97 0 0 0-.876.739v-1.01h-2.412v12.865h2.412v-4.483c0-2.044.093-3.408.276-4.056.23-.813.56-1.413.982-1.784.41-.36.814-.535 1.237-.535.114 0 .321.03.664.177l.323.139 1.225-1.965-.372-.207z" fill="#393939"/><path d="M32.817 69.885a17.734 17.734 0 0 1-11.438 4.164c-9.782 0-17.74-7.899-17.74-17.61 0-3.78 1.63-6.786 3.514-10.266 2.556-4.717 5.452-10.063 5.452-18.847 0-4.8 3.937-8.708 8.774-8.708 4.838 0 8.774 3.907 8.774 8.708 0 4.138.647 7.508 1.594 10.414 1.655.29 3.225.926 4.606 1.86-1.456-3.295-2.56-7.099-2.56-12.274 0-5.827-4.098-10.719-9.583-11.993.66-2.137 1.861-4.244 4.004-5.688a1.198 1.198 0 0 0 .322-1.673 1.219 1.219 0 0 0-1.685-.32c-2.842 1.915-4.34 4.666-5.102 7.363-.123-.004-.246-.01-.37-.01-6.844 0-12.412 5.528-12.412 12.32 0 7.875-2.552 12.584-5.019 17.137C1.918 48.21 0 51.75 0 56.44c0 11.7 9.591 21.222 21.38 21.222a21.38 21.38 0 0 0 14.52-5.667 3.321 3.321 0 0 1-.66-.347 71.115 71.115 0 0 1-2.424-1.763" fill="#B9BF33"/><g transform="translate(36.387 .182)"><mask id="b" fill="#fff"><use xlink:href="#a"/></mask><path d="M37.312 41.401c-2.708-4.999-5.51-10.169-5.51-18.826 0-6.488-4.705-11.904-10.906-13.071.542-2.57 1.76-5.287 4.353-7.034.555-.374.7-1.123.323-1.673a1.22 1.22 0 0 0-1.685-.32c-3.348 2.256-4.828 5.67-5.44 8.791h-.054c-7.394 0-13.409 5.969-13.409 13.307 0 7.695-2.214 12.633-4.608 17.147.134.1.273.194.404.3a11.839 11.839 0 0 1 4.63-2.294c1.783-3.98 3.213-8.719 3.213-15.153 0-5.346 4.383-9.695 9.77-9.695 5.388 0 9.77 4.349 9.77 9.695 0 9.567 3.158 15.394 5.943 20.538 2.075 3.828 3.865 7.134 3.865 11.313 0 10.715-8.783 19.434-19.578 19.434-4.822 0-9.24-1.743-12.656-4.624a70.35 70.35 0 0 1-2.99 2.2 23.22 23.22 0 0 0 15.646 6.037c12.802 0 23.218-10.34 23.218-23.047 0-5.09-2.09-8.944-4.299-13.025" fill="#97C93C" mask="url(#b)"/></g><path d="M29.688 42.385c-3.834 0-6.952 3.096-6.952 6.902 0 5.848 8.695 13.656 14.43 17.798 5.737-4.142 14.431-11.95 14.431-17.798 0-3.806-3.118-6.902-6.952-6.902a6.949 6.949 0 0 0-6.155 3.69 1.498 1.498 0 0 1-1.323.792 1.496 1.496 0 0 1-1.323-.793 6.95 6.95 0 0 0-6.156-3.689m7.479 28.009c-.3 0-.6-.09-.858-.268-2.766-1.921-16.565-11.953-16.565-20.839 0-5.443 4.461-9.871 9.944-9.871a9.953 9.953 0 0 1 7.479 3.36 9.953 9.953 0 0 1 7.478-3.36c5.483 0 9.945 4.428 9.945 9.871 0 8.885-13.8 18.918-16.566 20.839a1.503 1.503 0 0 1-.857.268" fill="#E38EA5"/></g></svg>