<svg width="24" height="20" viewBox="0 0 24 20" xmlns="http://www.w3.org/2000/svg"><title>2E2CCACF-1756-445C-B118-D5F32DBE377C</title><path d="M12 0C7.994 0 4.733 3.141 4.521 7.092A5.499 5.499 0 0 0 5.5 18s-1.87-2.528-2.103-2.704A3.497 3.497 0 0 1 2 12.5c0-2.797 2.479-3.833 4.433-3.72C6.266 4.562 8.641 2 12 2c3.453 0 5.891 2.797 5.567 6.78C19.312 8.734 22 9.531 22 12.5c0 1.228-.265 2.172-1.225 2.796C20.54 15.45 18.5 18 18.5 18a5.499 5.499 0 1 0 .979-10.908C19.267 3.141 16.006 0 12 0zM5.363 13.077h4.978v-4.79h3.318v4.79h4.978L12 19.713l-6.637-6.636z" fill="#FFF" fill-rule="evenodd"/></svg>