<svg width="123" height="26" viewBox="0 0 123 26" xmlns="http://www.w3.org/2000/svg"><title>A782D76B-8298-443A-823C-96BBE1735B6A</title><g fill="#FFF" fill-rule="evenodd"><text font-family="MyriadPro-Semibold, Myriad Pro" font-size="22.4" font-weight="500"><tspan x="27.2" y="20.158">App Store</tspan></text><path d="M14.15 4.933c2.595 0 4.254 2.477 4.254 2.477s-2.53 1.355-2.53 4.298c0 3.494 3.178 4.51 3.178 4.51s-2.509 5.875-5.326 5.875c-1.584 0-1.69-.9-3.796-.9-1.828 0-2.445.9-3.838.9C3.434 22.093 0 16.366 0 11.708c0-4.837 3.477-6.775 5.656-6.775 1.914 0 2.711 1.112 4.253 1.112 1.297 0 2.318-1.112 4.242-1.112zM13.706 0c.382 2.371-1.797 5.304-4.402 5.209C8.92 2.19 11.727.159 13.705 0z"/></g></svg>