<svg width="126" height="25" viewBox="0 0 126 25" xmlns="http://www.w3.org/2000/svg" xmlns:xlink="http://www.w3.org/1999/xlink"><title>53E6E602-00EB-45B6-9D78-26A8D81AACA1</title><defs><linearGradient x1="19.215%" y1="-35.157%" x2="69.302%" y2="93.537%" id="a"><stop stop-color="#19A3B4" offset="0%"/><stop stop-color="#5BC3AF" offset="34.817%"/><stop stop-color="#C9F7A6" offset="92.234%"/><stop stop-color="#D7FEA5" offset="100%"/></linearGradient><path d="M16.145 7.772L2.495.232C2.108.02 1.751-.03 1.462.061l11.18 11.23 3.503-3.519" id="b"/><linearGradient x1="-14.698%" y1="-114.322%" x2="74.844%" y2="114.156%" id="c"><stop stop-color="#FC227C" offset="0%"/><stop stop-color="#FEEB7B" offset="100%"/></linearGradient><linearGradient x1="28.151%" y1="-14.814%" x2="48.188%" y2="82.894%" id="d"><stop stop-color="#0E4DA0" offset="0%"/><stop stop-color="#6BFED4" offset="100%"/></linearGradient><path d="M1.462.06C1.046.192.778.614.778 1.253L.78 21.357c0 .632.26 1.047.664 1.186l11.198-11.25L1.462.061" id="e"/><linearGradient x1="132.245%" y1="16.466%" x2="5.959%" y2="126.31%" id="f"><stop stop-color="#FC472E" offset="0%"/><stop stop-color="#FC472E" offset=".332%"/><stop stop-color="#893CD8" offset="100%"/></linearGradient><path d="M1.444 22.543c.29.1.655.053 1.051-.165l13.666-7.55-3.519-3.535-11.198 11.25" id="g"/></defs><g fill="none" fill-rule="evenodd"><use fill="url(#a)" xlink:href="#b"/><path d="M16.163 14.828l4.66-2.574c.944-.524.944-1.376 0-1.899l-4.678-2.583-3.503 3.52 3.52 3.536" fill="url(#c)"/><use fill="url(#d)" xlink:href="#e"/><use fill="url(#f)" xlink:href="#g"/><g fill="#FFF"><path d="M87.86 16.3l-1.025.99c-.237.133-.473.287-.708.397-.712.33-1.435.414-2.079.414-.684 0-1.757-.045-2.852-.856-1.52-1.095-2.185-2.98-2.185-4.621 0-3.399 2.704-5.066 4.91-5.066.77 0 1.562.198 2.206.614 1.07.724 1.348 1.666 1.501 2.17l-5.037 2.082-1.65.131c.535 2.787 2.377 4.408 4.414 4.408 1.017 0 1.772-.34 2.464-.69 0 0 .14-.074.04.027zm-3.04-5.543c.41-.152.622-.283.622-.589 0-.875-.968-1.887-2.124-1.887-.856 0-2.463.682-2.463 3.05 0 .37.044.764.065 1.158l3.9-1.732z"/><path d="M77.328 16.13c0 .852.148.985.852 1.052.367.044.733.063 1.095.108l-.792.482h-3.776c.495-.657.58-.723.58-1.16v-.49L75.28 3.088h-1.667l1.605-.791h3.064c-.664.393-.863.633-.948 1.4l-.005 12.434"/><path d="M71.472 8.634c.492.414 1.519 1.292 1.519 2.958 0 1.623-.895 2.388-1.797 3.113-.277.285-.6.594-.6 1.072 0 .486.323.749.556.945l.774.611c.94.813 1.799 1.558 1.799 3.072 0 2.062-1.95 4.141-5.637 4.141-3.104 0-4.605-1.513-4.605-3.135 0-.79.384-1.907 1.651-2.673 1.328-.831 3.128-.942 4.092-1.007-.301-.398-.645-.814-.645-1.494 0-.371.11-.593.215-.854-.235.023-.47.046-.685.046-2.273 0-3.557-1.734-3.557-3.444 0-1.008.45-2.127 1.372-2.937 1.222-1.03 2.679-1.207 3.836-1.207h4.415l-1.372.793h-1.331zm-1.518 9.732c-.176-.023-.282-.023-.494-.023-.194 0-1.351.043-2.248.35-.474.178-1.845.702-1.845 2.26 0 1.553 1.48 2.674 3.77 2.674 2.057 0 3.149-1.009 3.149-2.367 0-1.118-.707-1.708-2.332-2.894zm.616-4.165c.495-.506.538-1.205.538-1.602 0-1.577-.919-4.033-2.7-4.033-.555 0-1.157.285-1.499.727-.362.456-.47 1.049-.47 1.618 0 1.469.836 3.904 2.677 3.904.537 0 1.115-.267 1.454-.614zm-12.382 3.855c-3.406 0-5.228-2.714-5.228-5.17 0-2.872 2.29-5.328 5.55-5.328 3.149 0 5.122 2.523 5.122 5.172 0 2.588-1.95 5.326-5.444 5.326zm2.68-1.774c.517-.702.643-1.577.643-2.43 0-1.932-.899-5.614-3.556-5.614a2.95 2.95 0 0 0-1.932.744c-.836.767-.986 1.731-.986 2.677 0 2.166 1.047 5.738 3.644 5.738.838 0 1.693-.415 2.186-1.115zm-14.083 1.774c-3.406 0-5.225-2.714-5.225-5.17 0-2.872 2.291-5.328 5.548-5.328 3.148 0 5.12 2.523 5.12 5.172 0 2.588-1.948 5.326-5.443 5.326zm2.68-1.774c.515-.702.643-1.577.643-2.43 0-1.932-.902-5.614-3.556-5.614-.71 0-1.414.283-1.928.744-.838.767-.987 1.731-.987 2.677 0 2.166 1.051 5.738 3.643 5.738.837 0 1.69-.415 2.185-1.115zm-9.267 1.013l-2.873.673c-1.163.188-2.208.353-3.315.353-5.54 0-7.652-4.173-7.652-7.439 0-3.988 2.992-7.686 8.114-7.686 1.084 0 2.126.163 3.076.428 1.506.433 2.21.966 2.65 1.279l-1.669 1.621-.703.162.501-.818c-.679-.68-1.928-1.932-4.298-1.932-3.169 0-5.56 2.464-5.56 6.063 0 3.864 2.73 7.5 7.108 7.5 1.286 0 1.948-.265 2.55-.511v-3.314l-3.033.167 1.607-.883h4.257l-.52.512c-.141.123-.16.164-.2.328-.02.187-.04.782-.04.991v2.506m53.837-.901v5.583h-1.084V7.77h1.084v1.618c.706-1.046 1.996-1.874 3.495-1.874 2.688 0 4.498 2.086 4.498 5.388 0 3.28-1.81 5.41-4.498 5.41-1.415 0-2.682-.747-3.495-1.917zm6.828-3.493c0-2.49-1.268-4.387-3.516-4.387-1.396 0-2.731 1.122-3.312 2.101v4.548c.58.981 1.916 2.145 3.312 2.145 2.248 0 3.516-1.915 3.516-4.407zm2.645-9.055h1.083v14.208h-1.083zm13.244 17.213c.232.106.628.17.878.17.663 0 1.125-.277 1.54-1.256l.79-1.833-4.27-10.37h1.21l3.662 8.986 3.627-8.987h1.226l-5.207 12.547c-.54 1.293-1.39 1.915-2.559 1.915-.35 0-.812-.064-1.083-.149l.186-1.023m-3.165-3.035a19.492 19.492 0 0 1-.167-.934 6.404 6.404 0 0 1-.053-.801c-.37.558-.897 1.022-1.57 1.388-.673.368-1.312.549-2.189.549-1.056 0-1.875-.266-2.46-.805-.583-.539-.876-1.268-.876-2.191 0-.922.424-1.67 1.271-2.243.847-.575 1.942-.86 3.297-.86h2.527v-1.279c0-.736-.245-1.314-.734-1.734-.492-.42-1.181-.633-2.075-.633-.817 0-1.48.194-1.985.572-.5.386-.752.865-.752 1.44h-1.11l-.022-.054c-.04-.777.307-1.459 1.045-2.047.736-.588 1.699-.884 2.884-.884 1.182 0 2.138.291 2.859.872.72.575 1.081 1.406 1.081 2.492v5.074c0 .364.017.716.062 1.06a6.8 6.8 0 0 0 .215 1.018h-1.248zm-3.846-.808c.92 0 1.582-.21 2.258-.627.672-.414 1.13-.954 1.368-1.608v-1.974h-2.54c-.97 0-1.773.22-2.404.662-.633.442-.954.977-.954 1.598 0 .587.203 1.056.607 1.411.405.36.959.538 1.665.538z"/></g></g></svg>