<svg width="70" height="70" viewBox="0 0 70 70" xmlns="http://www.w3.org/2000/svg" xmlns:xlink="http://www.w3.org/1999/xlink"><title>E73BADA3-38DE-4D37-9003-5CE84467323E</title><defs><circle id="b" cx="25" cy="25" r="25"/><filter x="-50%" y="-50%" width="200%" height="200%" filterUnits="objectBoundingBox" id="a"><feOffset dx="4" dy="4" in="SourceAlpha" result="shadowOffsetOuter1"/><feGaussianBlur stdDeviation="5" in="shadowOffsetOuter1" result="shadowBlurOuter1"/><feComposite in="shadowBlurOuter1" in2="SourceAlpha" operator="out" result="shadowBlurOuter1"/><feColorMatrix values="0 0 0 0 0 0 0 0 0 0 0 0 0 0 0 0 0 0 0.07 0" in="shadowBlurOuter1"/></filter></defs><g fill="none" fill-rule="evenodd"><g fill="#000" transform="translate(6 6)"><use filter="url(#a)" xlink:href="#b"/><use fill-opacity=".15" xlink:href="#b"/></g><path d="M21.913 37.334V25.879l8.517 6.371a.95.95 0 0 0 1.14 0l8.517-6.37v11.454H21.913zm16.238-12.407L31 30.277l-7.151-5.35h14.302zm3.847-.748c0-.045-.006-.09-.01-.134-.005-.035-.006-.07-.012-.104-.007-.038-.018-.075-.028-.113-.01-.038-.019-.076-.032-.112-.01-.031-.026-.06-.039-.091a1.032 1.032 0 0 0-.055-.116l-.01-.023c-.014-.022-.03-.039-.044-.06-.022-.032-.044-.065-.069-.094-.023-.028-.047-.051-.072-.075-.024-.024-.047-.047-.073-.068a.654.654 0 0 0-.084-.057c-.027-.017-.053-.034-.082-.048-.03-.015-.06-.025-.092-.036-.028-.01-.056-.02-.086-.027a.74.74 0 0 0-.106-.013c-.02-.002-.04-.008-.06-.008H20.956c-.022 0-.041.006-.062.008-.035.003-.07.006-.105.013-.03.007-.058.017-.087.027-.03.011-.061.021-.09.036a.618.618 0 0 0-.083.048c-.029.018-.057.035-.084.057a.668.668 0 0 0-.073.068c-.025.024-.05.047-.072.075-.025.03-.047.062-.07.095-.013.02-.03.037-.042.06-.005.007-.007.015-.011.022-.02.037-.038.076-.055.116-.013.03-.028.06-.04.091-.012.036-.02.074-.03.112-.01.038-.022.075-.029.113-.006.034-.007.069-.011.104a1.19 1.19 0 0 0-.01.134c-.001.008-.003.016-.003.026v13.851c0 .666.428 1.205.957 1.205h20.086c.529 0 .957-.54.957-1.205V24.205l-.002-.026z" fill="#FFF"/></g></svg>