<svg width="102" height="141" viewBox="0 0 102 141" xmlns="http://www.w3.org/2000/svg" xmlns:xlink="http://www.w3.org/1999/xlink"><title>15D93A15-D9C3-44FA-A155-37E869DD2684</title><defs><path id="a" d="M54.252 102.09V.355H.49V102.09h53.762z"/></defs><g fill="none" fill-rule="evenodd"><path d="M14.562 129.327c-.523.933-1.232 1.668-2.108 2.185-1.772 1.047-3.914 1.023-5.728.002a5.38 5.38 0 0 1-2.104-2.085c-.49-.877-.738-1.883-.738-2.99 0-1.71.541-3.095 1.655-4.236 1.112-1.138 2.444-1.692 4.07-1.692a5.61 5.61 0 0 1 2.87.767c.87.507 1.573 1.233 2.09 2.155.518.925.78 1.916.78 2.947a5.98 5.98 0 0 1-.787 2.947m-4.784-11.855c-1.37 0-2.633.3-3.752.894a8.144 8.144 0 0 0-1.997 1.51v-1.994H.927v22.763H4.03v-7.722a8.772 8.772 0 0 0 2.096 1.476c1.126.56 2.375.844 3.711.844 2.377 0 4.436-.877 6.116-2.607 1.678-1.726 2.529-3.853 2.529-6.322 0-2.423-.859-4.523-2.553-6.245-1.696-1.723-3.765-2.597-6.15-2.597m24.675 6.746c.371-1.02.865-1.81 1.473-2.353 1.026-.92 2.22-1.368 3.652-1.368a5.8 5.8 0 0 1 2.471.549c.776.361 1.406.842 1.871 1.425.362.455.662 1.04.896 1.747H34.454zm13.844 2.295c-.02-2.282-.647-4.219-1.862-5.756-1.711-2.18-4.028-3.285-6.886-3.285-2.782 0-5.035 1.081-6.696 3.213-1.303 1.665-1.964 3.589-1.964 5.717 0 2.262.779 4.317 2.314 6.108 1.555 1.813 3.73 2.733 6.463 2.733 1.225 0 2.343-.19 3.323-.568a8.337 8.337 0 0 0 2.66-1.66c.78-.721 1.476-1.676 2.066-2.838l.238-.47-2.627-1.385-.258.433c-.59.984-1.138 1.699-1.627 2.126-.484.42-1.083.764-1.78 1.022a6.26 6.26 0 0 1-2.17.388c-1.535 0-2.787-.525-3.828-1.606-.937-.973-1.458-2.165-1.585-3.633h14.224l-.005-.539zm26.326 2.917a5.417 5.417 0 0 1-2.1 2.085 5.852 5.852 0 0 1-2.91.777 5.513 5.513 0 0 1-2.834-.78 5.756 5.756 0 0 1-2.109-2.185 5.977 5.977 0 0 1-.789-2.947c0-1.03.263-2.021.782-2.946a5.625 5.625 0 0 1 2.093-2.156 5.628 5.628 0 0 1 2.872-.767c1.63 0 2.963.553 4.075 1.692 1.116 1.141 1.658 2.528 1.658 4.235 0 1.107-.249 2.113-.738 2.991zm.607-9.56a7.995 7.995 0 0 0-1.992-1.505c-1.125-.592-2.396-.893-3.776-.893-2.389 0-4.46.874-6.157 2.597-1.696 1.722-2.556 3.823-2.556 6.245 0 2.47.853 4.597 2.532 6.323 1.682 1.73 3.742 2.606 6.121 2.606 1.337 0 2.59-.284 3.722-.844a8.79 8.79 0 0 0 2.106-1.477v1.912h3.074v-16.953H75.23v1.988zm25.051-1.79c-.718-.403-1.413-.608-2.065-.608-.85 0-1.672.258-2.446.766-.39.257-.771.582-1.14.974v-1.331h-3.146v16.953h3.145v-5.907c0-2.693.121-4.492.359-5.345.3-1.072.73-1.863 1.28-2.35.536-.475 1.062-.706 1.613-.706.15 0 .42.04.866.234l.422.182 1.597-2.589-.485-.272z" fill="#FFF"/><path d="M42.787 92.091c-4.03 3.42-9.234 5.488-14.913 5.488-12.753 0-23.128-10.41-23.128-23.207 0-4.98 2.123-8.942 4.58-13.527 3.333-6.216 7.109-13.261 7.109-24.836 0-6.326 5.132-11.475 11.44-11.475 6.307 0 11.439 5.149 11.439 11.475 0 5.453.843 9.893 2.078 13.723a15.37 15.37 0 0 1 6.005 2.452c-1.898-4.342-3.338-9.355-3.338-16.175 0-7.678-5.343-14.124-12.495-15.804.86-2.816 2.428-5.592 5.221-7.495a1.59 1.59 0 0 0 .42-2.204 1.578 1.578 0 0 0-2.196-.422c-3.706 2.523-5.658 6.147-6.652 9.702-.16-.005-.321-.012-.483-.012-8.924 0-16.183 7.283-16.183 16.235 0 10.376-3.327 16.58-6.543 22.581C2.5 63.528 0 68.193 0 74.372c0 15.421 12.505 27.968 27.874 27.968 7.305 0 13.96-2.839 18.934-7.468a4.314 4.314 0 0 1-.862-.457 92.763 92.763 0 0 1-3.16-2.324" fill="#B9BF33"/><g transform="translate(47.442 .24)"><mask id="b" fill="#fff"><use xlink:href="#a"/></mask><path d="M48.648 54.557c-3.532-6.588-7.184-13.4-7.184-24.809 0-8.55-6.135-15.687-14.22-17.225.707-3.386 2.294-6.966 5.676-9.268a1.59 1.59 0 0 0 .42-2.205 1.58 1.58 0 0 0-2.197-.422C26.78 3.602 24.85 8.1 24.051 12.214l-.07-.002c-9.641 0-17.483 7.867-17.483 17.536 0 10.14-2.886 16.648-6.008 22.596.175.132.356.256.527.395a15.372 15.372 0 0 1 6.037-3.022c2.324-5.246 4.189-11.49 4.189-19.969 0-7.045 5.715-12.776 12.738-12.776 7.024 0 12.737 5.731 12.737 12.776 0 12.607 4.118 20.286 7.75 27.064 2.705 5.045 5.038 9.402 5.038 14.908 0 14.12-11.45 25.61-25.525 25.61-6.287 0-12.047-2.298-16.501-6.094a91.78 91.78 0 0 1-3.899 2.9c5.386 4.938 12.548 7.954 20.4 7.954 16.691 0 30.271-13.625 30.271-30.37 0-6.706-2.723-11.785-5.604-17.163" fill="#97C93C" mask="url(#b)"/></g><path d="M38.708 55.854c-5 0-9.064 4.079-9.064 9.094 0 7.707 11.336 17.996 18.814 23.454 7.479-5.459 18.814-15.747 18.814-23.454 0-5.015-4.065-9.094-9.064-9.094a9.047 9.047 0 0 0-8.024 4.86 1.95 1.95 0 0 1-3.451 0 9.05 9.05 0 0 0-8.025-4.86m9.75 36.908a1.95 1.95 0 0 1-1.118-.353c-3.607-2.532-21.598-15.75-21.598-27.46 0-7.174 5.817-13.008 12.966-13.008 3.792 0 7.32 1.644 9.75 4.428a12.917 12.917 0 0 1 9.75-4.428c7.149 0 12.966 5.834 12.966 13.007 0 11.709-17.991 24.93-21.598 27.46a1.946 1.946 0 0 1-1.118.354" fill="#E38EA5"/></g></svg>