<svg width="60" height="60" viewBox="0 0 60 60" xmlns="http://www.w3.org/2000/svg"><title>5189E8B2-BF5E-4D7E-B567-8D16A8FE90B5</title><path d="M30 0C13.431 0 0 13.431 0 30c0 16.569 13.431 30 30 30 16.569 0 30-13.431 30-30C60 13.431 46.569 0 30 0zm15.087 24.831c.44 9.786-6.858 20.698-19.777 20.698a19.69 19.69 0 0 1-10.665-3.126 13.993 13.993 0 0 0 10.3-2.882 6.965 6.965 0 0 1-6.5-4.832 6.97 6.97 0 0 0 3.143-.119c-3.346-.672-5.656-3.687-5.581-6.91a6.927 6.927 0 0 0 3.152.87c-3.099-2.071-3.976-6.163-2.153-9.29 3.431 4.21 8.558 6.98 14.341 7.27-1.015-4.352 2.287-8.544 6.778-8.544 2.001 0 3.81.845 5.079 2.198a13.935 13.935 0 0 0 4.418-1.689 6.978 6.978 0 0 1-3.059 3.85 13.895 13.895 0 0 0 3.996-1.096 14.132 14.132 0 0 1-3.472 3.602z" fill="#797979" fill-rule="evenodd"/></svg>