<?xml version="1.0" encoding="UTF-8" standalone="no"?>
<svg width="60px" height="60px" viewBox="0 0 60 60" version="1.1" xmlns="http://www.w3.org/2000/svg" xmlns:xlink="http://www.w3.org/1999/xlink">
    <!-- Generator: sketchtool 39.1 (31720) - http://www.bohemiancoding.com/sketch -->
    <title>DB2F3DF7-89C8-4398-9E35-783F68B176AF</title>
    <desc>Created with sketchtool.</desc>
    <defs></defs>
    <g id="All-Page" stroke="none" stroke-width="1" fill="none" fill-rule="evenodd">
        <g id="Pear-Landing-All" transform="translate(-585.000000, -1610.000000)" fill="#797979">
            <path d="M614.927361,1610 C598.398886,1610 585,1623.39889 585,1639.92736 C585,1656.45584 598.398886,1669.85472 614.927361,1669.85472 C631.455835,1669.85472 644.854722,1656.45584 644.854722,1639.92736 C644.854722,1623.39889 631.455835,1610 614.927361,1610 L614.927361,1610 Z M623.784697,1627.60659 L619.602276,1627.60659 C618.125956,1627.60659 617.818257,1628.21138 617.818257,1629.73898 L617.818257,1633.42964 L623.784697,1633.42964 L623.210702,1639.90847 L617.818257,1639.90847 L617.818257,1659.26349 L610.089443,1659.26349 L610.089443,1639.99056 L606.070169,1639.99056 L606.070169,1633.42978 L610.089443,1633.42978 L610.089443,1628.26295 C610.089443,1623.4137 612.682518,1620.88179 618.433801,1620.88179 L623.784843,1620.88179 L623.784843,1627.60659 L623.784697,1627.60659 Z" id="facebook_icon"></path>
        </g>
    </g>
</svg>