<?xml version="1.0" encoding="UTF-8" standalone="no"?>
<svg width="60px" height="60px" viewBox="0 0 60 60" version="1.1" xmlns="http://www.w3.org/2000/svg" xmlns:xlink="http://www.w3.org/1999/xlink">
    <!-- Generator: sketchtool 39.1 (31720) - http://www.bohemiancoding.com/sketch -->
    <title>CECB0D72-83E1-439F-ACB8-670FBC79EA83</title>
    <desc>Created with sketchtool.</desc>
    <defs></defs>
    <g id="All-Page" stroke="none" stroke-width="1" fill="none" fill-rule="evenodd">
        <g id="Pear-Landing-All" transform="translate(-485.000000, -1610.000000)" fill="#797979">
            <path d="M528.125,1628.22 L528.125,1631.3925 C528.125,1632.135 527.5225,1632.74 526.78,1632.74 L523.6075,1632.74 C522.86,1632.74 522.2625,1632.135 522.2625,1631.3925 L522.2625,1628.22 C522.2625,1627.4775 522.86,1626.875 523.6075,1626.875 L526.78,1626.875 C527.5225,1626.875 528.125,1627.4775 528.125,1628.22 L528.125,1628.22 Z M515,1646.7275 C518.715,1646.7275 521.7325,1643.715 521.7325,1639.9975 C521.7325,1636.28 518.715,1633.2725 515,1633.2725 C511.2825,1633.2725 508.2725,1636.2825 508.2725,1640 C508.2725,1643.7175 511.2825,1646.7275 515,1646.7275 L515,1646.7275 Z M525.6525,1638.5 C525.7225,1638.99 525.7675,1639.49 525.7675,1639.9975 C525.7675,1645.9475 520.9475,1650.7675 515,1650.7675 C509.0525,1650.7675 504.2325,1645.9475 504.2325,1640 C504.2325,1639.49 504.2775,1638.9925 504.3475,1638.5025 C504.415,1638.0175 504.5125,1637.545 504.6425,1637.085 L501.875,1637.085 L501.875,1651.7825 C501.875,1652.525 502.4775,1653.1275 503.22,1653.1275 L526.78,1653.1275 C527.5225,1653.1275 528.125,1652.525 528.125,1651.7825 L528.125,1637.085 L525.3575,1637.085 C525.4825,1637.545 525.5825,1638.0175 525.6525,1638.5 L525.6525,1638.5 Z M545,1640 C545,1656.5675 531.5675,1670 515,1670 C498.4325,1670 485,1656.5675 485,1640 C485,1623.4325 498.4325,1610 515,1610 C531.5675,1610 545,1623.4325 545,1640 L545,1640 Z M532.5,1626.5375 C532.5,1624.3075 530.6925,1622.5 528.4625,1622.5 L501.5375,1622.5 C499.3075,1622.5 497.5,1624.3075 497.5,1626.5375 L497.5,1653.46 C497.5,1655.6925 499.3075,1657.5 501.5375,1657.5 L528.4625,1657.5 C530.6925,1657.5 532.5,1655.6925 532.5,1653.46 L532.5,1626.5375 L532.5,1626.5375 Z" id="instagram_icon"></path>
        </g>
    </g>
</svg>