<?xml version="1.0" encoding="UTF-8" standalone="no"?>
<svg width="110px" height="27px" viewBox="0 0 110 27" version="1.1" xmlns="http://www.w3.org/2000/svg" xmlns:xlink="http://www.w3.org/1999/xlink">
    <!-- Generator: sketchtool 39.1 (31720) - http://www.bohemiancoding.com/sketch -->
    <title>43AAB3FF-EEA5-4647-B6C3-2DC6AFDA9A0B</title>
    <desc>Created with sketchtool.</desc>
    <defs></defs>
    <g id="Symbols" stroke="none" stroke-width="1" fill="none" fill-rule="evenodd">
        <g id="menu-copy" transform="translate(-32.000000, -18.000000)">
            <g id="pear_logo_black" transform="translate(32.000000, 18.000000)">
                <g id="Group-2" transform="translate(41.312500, 8.500000)" fill="#393939">
                    <path d="M9.85785266,8.18248998 C9.504162,8.81401824 9.02441132,9.31183006 8.43104605,9.66182882 C7.23146863,10.3706871 5.78137704,10.3541739 4.55369707,9.6630371 C3.93744829,9.31626042 3.45809908,8.84180871 3.12889778,8.25176476 C2.79728769,7.65769322 2.62947532,6.97662543 2.62947532,6.22668562 C2.62947532,5.06995783 2.9956114,4.13233169 3.74996414,3.35943454 C4.50271101,2.58895395 5.40399994,2.2143868 6.5056199,2.2143868 C7.20416901,2.2143868 7.85735256,2.38878204 8.44750611,2.73354492 C9.03685674,3.07669676 9.51259276,3.56806441 9.86267024,4.19234298 C10.2135507,4.81863536 10.3913997,5.48963414 10.3913997,6.1872151 C10.3913997,6.87794914 10.2119448,7.54935068 9.85785266,8.18248998 M6.61963596,0.156684068 C5.69185035,0.156684068 4.83713136,0.360480815 4.07916544,0.762032905 C3.59379425,1.01979954 3.14174466,1.36134034 2.72783424,1.78383597 L2.72783424,0.434185963 L0.627770822,0.434185963 L0.627770822,15.8446033 L2.72783424,15.8446033 L2.72783424,10.6171764 C3.16783988,11.0308113 3.64237152,11.3651024 4.14621009,11.6160221 C4.90859213,11.9954224 5.75407742,12.1871363 6.65897953,12.1871363 C8.26805126,12.1871363 9.66153628,11.5938703 10.7992881,10.4226432 C11.935434,9.25423533 12.5111349,7.814367 12.5111349,6.14291146 C12.5111349,4.50246847 11.9298135,3.08072436 10.7832295,1.91513585 C9.63503959,0.748741813 8.2343282,0.156684068 6.61963596,0.156684068" id="Fill-1"></path>
                    <path d="M23.3243538,4.72362419 C23.5760723,4.03329291 23.9104927,3.4988299 24.3215928,3.13070692 C25.0165288,2.50763663 25.8250793,2.20476083 26.7942158,2.20476083 C27.37634,2.20476083 27.939194,2.32961654 28.4671204,2.57610589 C28.9926381,2.8209842 29.4185925,3.14641458 29.7337425,3.54111974 C29.9786362,3.84882866 30.1817775,4.24514487 30.3399547,4.72362419 L23.3243538,4.72362419 Z M32.6969557,6.2774737 C32.6829044,4.73248492 32.2585559,3.42149991 31.4363556,2.38036435 C30.2777276,0.905053113 28.7096053,0.157127104 26.774544,0.157127104 C24.8912717,0.157127104 23.3661061,0.888942698 22.2412012,2.33163035 C21.3591826,3.45895663 20.9119506,4.76148366 20.9119506,6.20215751 C20.9119506,7.7338552 21.4390741,9.12498952 22.478467,10.3372982 C23.5311083,11.5645091 25.0032804,12.1875794 26.8536326,12.1875794 C27.6830593,12.1875794 28.4398208,12.0582933 29.103041,11.8029432 C29.7670641,11.5467876 30.3728748,11.1689984 30.9044145,10.678839 C31.4327424,10.1906935 31.9036609,9.54466583 32.3031185,8.75807483 L32.464106,8.43989413 L30.685616,7.50226799 L30.5105773,7.79507478 C30.1111196,8.46164319 29.7405674,8.9453584 29.4093588,9.23413758 C29.0817634,9.51929193 28.6762837,9.75168466 28.2045623,9.9260799 C27.7300307,10.1008779 27.2358273,10.1890824 26.7352004,10.1890824 C25.696209,10.1890824 24.8487164,9.83384778 24.1437439,9.10162942 C23.5094291,8.44311622 23.1569429,7.63598443 23.0706279,6.6423746 L32.7001674,6.6423746 L32.6969557,6.2774737 Z" id="Fill-3"></path>
                    <path d="M50.5191112,8.25172449 C50.189107,8.84136567 49.7101592,9.31662291 49.0967207,9.66339959 C48.4784646,10.0125928 47.8160474,10.1894046 47.1279363,10.1894046 C46.4478546,10.1894046 45.8031018,10.0117873 45.2089336,9.66178855 C44.6151669,9.31138702 44.1346133,8.81357521 43.7813241,8.1824497 C43.4268305,7.5493104 43.2469742,6.87790886 43.2469742,6.18717483 C43.2469742,5.48999662 43.4252246,4.81899785 43.7765065,4.19270547 C44.1257811,3.56802413 44.6031229,3.07665648 45.192875,2.73350465 C45.784233,2.38874177 46.4386209,2.21434653 47.1375715,2.21434653 C48.2407973,2.21434653 49.1432906,2.58851091 49.896439,3.35979702 C50.6519961,4.13229141 51.0185337,5.07072308 51.0185337,6.22664534 C51.0185337,6.97618239 50.8503198,7.65725018 50.5191112,8.25172449 L50.5191112,8.25172449 Z M50.9298099,1.77976809 C50.5191112,1.3588835 50.0678645,1.01814823 49.581289,0.761589869 C48.8197099,0.360440539 47.9593704,0.156643792 47.0247598,0.156643792 C45.4080603,0.156643792 44.0053416,0.748701537 42.8567502,1.91509557 C41.7089618,3.08068408 41.1268375,4.50283095 41.1268375,6.14287119 C41.1268375,7.81472949 41.7037427,9.25500057 42.8406916,10.4230056 C43.9796478,11.59383 45.3739357,12.1870961 46.9846133,12.1870961 C47.8899169,12.1870961 48.737811,11.9953821 49.5042077,11.6163846 C50.0108565,11.3650622 50.4885999,11.0299655 50.9298099,10.6159279 L50.9298099,11.9108025 L53.010603,11.9108025 L53.010603,0.433742927 L50.9298099,0.433742927 L50.9298099,1.77976809 Z" id="Fill-5"></path>
                    <path d="M67.8887354,0.568989859 C67.4025612,0.295515567 66.9320443,0.156966 66.4908342,0.156966 C65.9159363,0.156966 65.3591044,0.331764001 64.8351926,0.675721358 C64.5710286,0.849311078 64.3128866,1.069621 64.0627739,1.33463732 L64.0627739,0.433662375 L61.9334035,0.433662375 L61.9334035,11.9107219 L64.0627739,11.9107219 L64.0627739,7.91171418 C64.0627739,6.08841798 64.1446728,4.87087338 64.3056602,4.29331501 C64.5088015,3.56754082 64.8002651,3.03227229 65.1728246,2.70200878 C65.5349461,2.38060601 65.891447,2.22433498 66.264408,2.22433498 C66.3651757,2.22433498 66.5482437,2.25172269 66.8505469,2.38261981 L67.1359885,2.50626724 L68.2171337,0.753454109 L67.8887354,0.568989859 Z" id="Fill-7"></path>
                </g>
                <g id="Group-3">
                    <g id="Page-1">
                        <path d="M12.0171477,24.7508386 C11.7411648,24.5576966 11.3415341,24.2674466 10.8791591,23.9018727 C9.93738068,24.5963557 8.77484659,25.0079523 7.51765909,25.0079523 C4.38765341,25.0079523 1.84136932,22.461208 1.84136932,19.3308955 C1.84136932,18.1241795 2.37339205,17.1345375 2.98978977,15.987958 C3.86882386,14.3535375 4.86521591,12.5011227 4.86521591,9.43861705 C4.86521591,7.97632159 6.05505682,6.78663409 7.51765909,6.78663409 C8.98026136,6.78663409 10.1701023,7.97632159 10.1701023,9.43861705 C10.1701023,10.6754011 10.3340966,11.7122932 10.5858409,12.619708 C11.388017,12.6698727 12.1635,12.9440148 12.8164091,13.410225 C12.3557216,12.3374352 12.0113182,11.0994239 12.0113182,9.43861705 C12.0113182,7.45519091 10.7352614,5.73869659 8.86873295,5.15390114 C9.11648864,4.51786705 9.49448864,4.02465682 9.99536932,3.68470227 C10.3218239,3.46256591 10.4069659,3.01645227 10.1854432,2.69030455 C10.0521307,2.49363409 9.83060795,2.37627614 9.59267045,2.37627614 C9.44907955,2.37627614 9.31009091,2.41907727 9.19089205,2.49977045 C8.35343182,3.06815114 7.75713068,3.89057727 7.41610227,4.94664545 C4.98518182,5.00064545 3.02430682,6.99496364 3.02430682,9.43861705 C3.02430682,12.0366 2.18255114,13.601833 1.36733523,15.1178216 C0.664261364,16.4256341 0,17.6608841 0,19.3308955 C0,23.4764693 3.37239205,26.8491682 7.51765909,26.8491682 C9.42284659,26.8491682 11.163733,26.1353557 12.4899545,24.96285 C12.3222784,24.9205091 12.1618125,24.8516284 12.0171477,24.7508386" id="Fill-1" fill="#B9BF33"></path>
                        <path d="M25.4341534,14.1378903 C24.5385511,12.4723278 23.6127273,10.7503108 23.6127273,7.88600966 C23.6127273,5.67753239 22.1110057,3.76129943 19.9984091,3.21347557 C20.2300568,2.3635892 20.6560739,1.72356648 21.2681761,1.30844148 C21.5947841,1.08645852 21.6799261,0.640344886 21.4584034,0.313890341 C21.3247841,0.117219886 21.1029545,1.53409091e-05 20.8654773,1.53409091e-05 C20.7218864,1.53409091e-05 20.5828977,0.0428164773 20.4640057,0.123509659 C19.4955341,0.780867614 18.8532102,1.76882216 18.5520682,3.06298125 C15.9959659,3.18386761 13.9537841,5.30091307 13.9537841,7.88600966 C13.9537841,10.253879 13.3205114,11.8405892 12.5942727,13.2622313 C12.6784943,13.3146972 12.7617955,13.3691574 12.8423352,13.4276063 C13.4479943,12.9882426 14.1621136,12.7173222 14.9056875,12.6369358 C15.4139318,11.3634869 15.7946932,9.85532216 15.7946932,7.88600966 C15.7946932,6.23885625 17.1351818,4.89867443 18.7832557,4.89867443 C20.4307159,4.89867443 21.7712045,6.23885625 21.7712045,7.88600966 C21.7712045,11.2120722 22.8545795,13.2278676 23.8126193,15.0103278 C24.4922216,16.2736517 25.0793182,17.3646972 25.0793182,18.7088676 C25.0793182,22.181129 22.2549034,25.0058506 18.7832557,25.0058506 C17.3666761,25.0058506 16.0580966,24.5353449 15.0049432,23.7428335 C14.4585,24.1838847 13.9835455,24.5296687 13.6689034,24.7498108 C13.6055455,24.794146 13.5389659,24.8323449 13.470392,24.8656347 C14.8970966,26.0987369 16.7538068,26.8470665 18.7832557,26.8470665 C23.2701648,26.8470665 26.9206875,23.1962369 26.9206875,18.7088676 C26.9206875,16.9030892 26.1988977,15.5607597 25.4341534,14.1378903" id="Fill-3" fill="#97C93C"></path>
                        <path d="M10.3200597,14.8625335 C11.078821,14.8625335 11.7703892,15.2801131 12.1246108,15.9520449 C12.2651335,16.2192835 12.540196,16.3852722 12.8424119,16.3852722 C13.144321,16.3852722 13.4193835,16.2194369 13.5602131,15.9521983 C13.9147415,15.2801131 14.6058494,14.8625335 15.3646108,14.8625335 C16.4884858,14.8625335 17.4026506,15.7770051 17.4026506,16.9008801 C17.4026506,18.5880733 14.9867642,20.9743517 12.8424119,22.5678119 C10.6979062,20.9745051 8.28201989,18.5883801 8.28201989,16.9008801 C8.28201989,15.7770051 9.19633807,14.8625335 10.3200597,14.8625335 M15.3646108,13.2397722 C14.4205312,13.2397722 13.5187926,13.6028915 12.8424119,14.2461358 C12.1660312,13.6028915 11.2639858,13.2397722 10.3200597,13.2397722 C8.30134943,13.2397722 6.65910511,14.8821699 6.65910511,16.9008801 C6.65910511,20.0716926 11.422304,23.5651244 12.3777358,24.2336813 C12.5150369,24.3292551 12.6758097,24.3797267 12.8424119,24.3797267 C13.0091676,24.3797267 13.1697869,24.3292551 13.3075483,24.233221 C14.2620597,23.5651244 19.0257187,20.0721528 19.0257187,16.9008801 C19.0257187,14.8821699 17.3834744,13.2397722 15.3646108,13.2397722" id="Fill-5" fill="#E38EA5"></path>
                    </g>
                </g>
            </g>
        </g>
    </g>
</svg>