<?xml version="1.0" encoding="UTF-8" standalone="no"?>
<svg width="70px" height="70px" viewBox="0 0 70 70" version="1.1" xmlns="http://www.w3.org/2000/svg" xmlns:xlink="http://www.w3.org/1999/xlink">
    <!-- Generator: sketchtool 39.1 (31720) - http://www.bohemiancoding.com/sketch -->
    <title>E73BADA3-38DE-4D37-9003-5CE84467323E</title>
    <desc>Created with sketchtool.</desc>
    <defs>
        <circle id="path-1" cx="25" cy="25" r="25"></circle>
        <filter x="-50%" y="-50%" width="200%" height="200%" filterUnits="objectBoundingBox" id="filter-2">
            <feOffset dx="4" dy="4" in="SourceAlpha" result="shadowOffsetOuter1"></feOffset>
            <feGaussianBlur stdDeviation="5" in="shadowOffsetOuter1" result="shadowBlurOuter1"></feGaussianBlur>
            <feComposite in="shadowBlurOuter1" in2="SourceAlpha" operator="out" result="shadowBlurOuter1"></feComposite>
            <feColorMatrix values="0 0 0 0 0   0 0 0 0 0   0 0 0 0 0  0 0 0 0.07 0" type="matrix" in="shadowBlurOuter1"></feColorMatrix>
        </filter>
    </defs>
    <g id="Symbols" stroke="none" stroke-width="1" fill="none" fill-rule="evenodd">
        <g id="mail_icon" transform="translate(-16.000000, -18.000000)">
            <g transform="translate(22.000000, 24.000000)">
                <g id="Comparison">
                    <g id="Base">
                        <g>
                            <use fill="black" fill-opacity="1" filter="url(#filter-2)" xlink:href="#path-1"></use>
                            <use fill-opacity="0.15" fill="#000000" fill-rule="evenodd" xlink:href="#path-1"></use>
                        </g>
                    </g>
                </g>
                <path d="M15.9130435,31.3336554 L15.9130435,19.879258 L24.4296739,26.2501462 C24.5989783,26.3768605 24.7993696,26.4402177 25,26.4402177 C25.2003913,26.4402177 25.4007826,26.3768605 25.570087,26.2501462 L34.0869565,19.879258 L34.0869565,31.3336554 L15.9130435,31.3336554 Z M32.1509565,18.9272142 L25,24.276438 L17.8490435,18.9272142 L32.1509565,18.9272142 Z M35.9978478,18.1786119 C35.9971304,18.133744 35.9918696,18.0891771 35.9873261,18.0446103 C35.9835,18.0099807 35.981587,17.9750499 35.9756087,17.9413237 C35.9686739,17.9030805 35.9576739,17.8660419 35.9476304,17.828401 C35.9378261,17.7904589 35.9292174,17.7522158 35.9163043,17.7157794 C35.9053043,17.6847633 35.8904783,17.6552528 35.877087,17.624839 C35.8596304,17.5853913 35.8428913,17.5456425 35.822087,17.508905 C35.8180217,17.5016779 35.8156304,17.4935475 35.8113261,17.4863205 C35.798413,17.4643382 35.7823913,17.447475 35.7682826,17.4266973 C35.7460435,17.3941755 35.7242826,17.3613527 35.699413,17.3315411 C35.6764565,17.3041385 35.6520652,17.2809517 35.6274348,17.2568615 C35.6032826,17.2330725 35.5796087,17.2095845 35.5535435,17.1888068 C35.5267609,17.1674267 35.4985435,17.1496602 35.4703261,17.1318937 C35.4433043,17.1147295 35.4165217,17.0975652 35.3880652,17.0837134 C35.3581739,17.0692593 35.3275652,17.0587198 35.2964783,17.0478792 C35.2677826,17.037942 35.2398043,17.0277037 35.2101522,17.0210789 C35.175,17.0132496 35.1398478,17.0105395 35.1042174,17.0078293 C35.0836522,17.0060225 35.0642826,17 35.0434783,17 L14.9565217,17 C14.9354783,17 14.9156304,17.0060225 14.8948261,17.0078293 C14.8596739,17.0108406 14.8247609,17.0135507 14.790087,17.0210789 C14.7601957,17.0277037 14.7317391,17.0382432 14.7030435,17.0481804 C14.6721957,17.0590209 14.6418261,17.0692593 14.6121739,17.0837134 C14.5834783,17.0975652 14.5566957,17.1147295 14.5296739,17.1318937 C14.5012174,17.1499614 14.4732391,17.1674267 14.4464565,17.1888068 C14.4203913,17.2095845 14.3967174,17.2330725 14.3725652,17.2568615 C14.3479348,17.2809517 14.3235435,17.3041385 14.300587,17.3315411 C14.2757174,17.3613527 14.2539565,17.3941755 14.2317174,17.4266973 C14.2178478,17.447475 14.201587,17.4643382 14.1886739,17.4863205 C14.1843696,17.4935475 14.1819783,17.5016779 14.177913,17.508905 C14.1571087,17.5456425 14.1403696,17.5850902 14.122913,17.624839 C14.1095217,17.6552528 14.0946957,17.6847633 14.0836957,17.7160805 C14.0710217,17.7522158 14.062413,17.7904589 14.0523696,17.8280998 C14.0425652,17.8657407 14.0313261,17.9030805 14.0243913,17.9413237 C14.018413,17.9750499 14.0165,18.0099807 14.012913,18.0446103 C14.0081304,18.0891771 14.0028696,18.133744 14.0021522,18.1786119 C14.001913,18.1873446 14,18.195475 14,18.2045089 L14,32.0563607 C14,32.7215507 14.4282826,33.2608696 14.9565217,33.2608696 L35.0434783,33.2608696 C35.5717174,33.2608696 36,32.7215507 36,32.0563607 L36,18.2045089 C36,18.195475 35.998087,18.1873446 35.9978478,18.1786119 L35.9978478,18.1786119 Z" id="mail" fill="#FFFFFF"></path>
            </g>
        </g>
    </g>
</svg>