<?xml version="1.0" encoding="UTF-8" standalone="no"?>
<svg width="60px" height="60px" viewBox="0 0 60 60" version="1.1" xmlns="http://www.w3.org/2000/svg" xmlns:xlink="http://www.w3.org/1999/xlink">
    <!-- Generator: sketchtool 39.1 (31720) - http://www.bohemiancoding.com/sketch -->
    <title>5189E8B2-BF5E-4D7E-B567-8D16A8FE90B5</title>
    <desc>Created with sketchtool.</desc>
    <defs></defs>
    <g id="All-Page" stroke="none" stroke-width="1" fill="none" fill-rule="evenodd">
        <g id="Pear-Landing-All" transform="translate(-684.000000, -1610.000000)" fill="#797979">
            <path d="M714,1610 C697.431408,1610 684,1623.43141 684,1640 C684,1656.56859 697.431408,1670 714,1670 C730.568592,1670 744,1656.56859 744,1640 C744,1623.43141 730.568592,1610 714,1610 L714,1610 Z M729.087233,1634.83097 C729.527184,1644.61723 722.228592,1655.52864 709.310243,1655.52864 C705.380971,1655.52864 701.723447,1654.37655 698.644515,1652.40252 C702.335825,1652.83752 706.020146,1651.81359 708.945583,1649.52107 C705.900874,1649.46485 703.330922,1647.4534 702.445777,1644.68888 C703.535971,1644.89743 704.608544,1644.83641 705.587767,1644.57005 C702.241748,1643.89767 699.931602,1640.88311 700.007039,1637.65942 C700.944903,1638.18078 702.018204,1638.49374 703.158786,1638.52985 C700.060049,1636.45883 699.182621,1632.36704 701.005631,1629.24019 C704.437136,1633.44981 709.564369,1636.22 715.347087,1636.5101 C714.332184,1632.15777 717.633786,1627.96636 722.125049,1627.96636 C724.126311,1627.96636 725.934757,1628.81131 727.203786,1630.16364 C728.788835,1629.85155 730.277767,1629.27252 731.622379,1628.47519 C731.102913,1630.1 729.999466,1631.46369 728.562961,1632.32466 C729.970485,1632.15675 731.311602,1631.78262 732.559223,1631.22908 C731.626456,1632.62451 730.446845,1633.85015 729.087233,1634.83097 L729.087233,1634.83097 Z" id="twitter_icon"></path>
        </g>
    </g>
</svg>