<?xml version="1.0" encoding="UTF-8" standalone="no"?>
<svg width="102px" height="141px" viewBox="0 0 102 141" version="1.1" xmlns="http://www.w3.org/2000/svg" xmlns:xlink="http://www.w3.org/1999/xlink">
    <!-- Generator: sketchtool 39.1 (31720) - http://www.bohemiancoding.com/sketch -->
    <title>15D93A15-D9C3-44FA-A155-37E869DD2684</title>
    <desc>Created with sketchtool.</desc>
    <defs>
        <polygon id="path-1" points="54.2521395 102.090009 54.2521395 0.354582278 0.489955814 0.354582278 0.489955814 102.090009 54.2521395 102.090009"></polygon>
    </defs>
    <g id="Symbols" stroke="none" stroke-width="1" fill="none" fill-rule="evenodd">
        <g id="logo1" transform="translate(-37.000000, -18.000000)">
            <g id="pear_logo_color_white" transform="translate(37.000000, 18.000000)">
                <path d="M14.5615081,129.327104 C14.0390547,130.259965 13.3303919,130.995306 12.4539035,131.512306 C10.68195,132.559395 8.53995,132.535003 6.72648488,131.514091 C5.81619419,131.001851 5.10812442,130.301015 4.62184535,129.429433 C4.13200814,128.551901 3.88412442,127.545863 3.88412442,126.438091 C3.88412442,124.729433 4.42496163,123.34442 5.53925233,122.202737 C6.65117093,121.064623 7.98250814,120.511332 9.60976395,120.511332 C10.6416244,120.511332 11.6064733,120.768939 12.4782174,121.278205 C13.3487756,121.785091 14.0515081,122.510914 14.5686244,123.433066 C15.0869267,124.358192 15.349636,125.349357 15.349636,126.379787 C15.349636,127.400104 15.0845547,128.391863 14.5615081,129.327104 M9.77818256,117.4718 C8.40770581,117.4718 7.1451593,117.772838 6.0255314,118.36599 C5.30856628,118.746749 4.64082209,119.251256 4.02941512,119.875344 L4.02941512,117.881711 L0.927310465,117.881711 L0.927310465,140.64518 L4.02941512,140.64518 L4.02941512,132.923496 C4.6793686,133.534496 5.38032209,134.028294 6.12456628,134.398939 C7.25071744,134.95937 8.49962442,135.242559 9.83629884,135.242559 C12.213136,135.242559 14.2715198,134.366218 15.9521477,132.636142 C17.6304035,130.91023 18.4807988,128.783332 18.4807988,126.314344 C18.4807988,123.891167 17.6221012,121.791041 15.9284267,120.069294 C14.2323802,118.346357 12.1633221,117.4718 9.77818256,117.4718" id="Fill-1" fill="#FFFFFF"></path>
                <path d="M34.4535244,124.217847 C34.82535,123.198125 35.3193384,122.408644 35.9265942,121.864872 C36.9531174,120.944505 38.1474663,120.497113 39.5790244,120.497113 C40.4389081,120.497113 41.2703267,120.681543 42.0501523,121.045644 C42.8264198,121.407366 43.4556174,121.888075 43.9211407,122.471113 C44.2828849,122.925644 44.5829547,123.511062 44.8166058,124.217847 L34.4535244,124.217847 Z M48.2982453,126.513113 C48.2774895,124.230935 47.650664,122.294416 46.4361523,120.756505 C44.7246872,118.577252 42.4083384,117.472454 39.5499663,117.472454 C36.7680942,117.472454 34.5151988,118.553454 32.8535477,120.684518 C31.5506756,122.349746 30.8900477,124.273771 30.8900477,126.401859 C30.8900477,128.664404 31.6686872,130.719315 33.2040244,132.510075 C34.7589314,134.322847 36.9335477,135.243214 39.6667919,135.243214 C40.8919779,135.243214 42.0098267,135.052239 42.9895012,134.675049 C43.9703616,134.29667 44.8652337,133.738619 45.6503965,133.014581 C46.4308151,132.293518 47.1264314,131.339239 47.7164895,130.177328 L47.9542919,129.707328 L45.3271988,128.322315 L45.0686407,128.754834 C44.4785826,129.739454 43.9312221,130.453973 43.4419779,130.880543 C42.9580709,131.301758 42.3591174,131.645037 41.6623151,131.902644 C40.9613616,132.160847 40.23135,132.291138 39.49185,132.291138 C37.9571058,132.291138 36.7052337,131.766404 35.6638849,130.684809 C34.7269081,129.712087 34.2062337,128.519834 34.0787337,127.052125 L48.3029895,127.052125 L48.2982453,126.513113 Z" id="Fill-3" fill="#FFFFFF"></path>
                <path d="M74.6242081,129.429373 C74.136743,130.300361 73.4292663,131.002386 72.5231267,131.514627 C71.6098709,132.030437 70.6313826,132.291614 69.6149407,132.291614 C68.6103593,132.291614 67.657964,132.029247 66.7802895,131.512247 C65.9032081,130.994652 65.1933593,130.25931 64.6714988,129.327044 C64.1478593,128.391804 63.8821849,127.400044 63.8821849,126.379728 C63.8821849,125.349892 64.1454872,124.358728 64.6643826,123.433601 C65.1803128,122.510854 65.8854174,121.785032 66.7565686,121.278146 C67.6300919,120.76888 68.5967198,120.511272 69.6291733,120.511272 C71.2588012,120.511272 72.5919174,121.063968 73.7044291,122.203272 C74.8204988,123.344361 75.3619291,124.730563 75.3619291,126.438032 C75.3619291,127.545209 75.1134523,128.551247 74.6242081,129.429373 L74.6242081,129.429373 Z M75.2308709,119.869335 C74.6242081,119.247627 73.95765,118.74431 73.2389058,118.365335 C72.1139407,117.772778 70.8430919,117.471741 69.4625337,117.471741 C67.0744291,117.471741 65.0024058,118.346297 63.3057663,120.069234 C61.6103128,121.790981 60.7504291,123.891703 60.7504291,126.314285 C60.7504291,128.783867 61.6026035,130.911361 63.2820453,132.636677 C64.9644523,134.366158 67.0240221,135.2425 69.4032314,135.2425 C70.7404988,135.2425 71.992964,134.95931 73.1250453,134.399475 C73.8734407,134.028234 74.5791384,133.533247 75.2308709,132.921652 L75.2308709,134.834373 L78.3045105,134.834373 L78.3045105,117.881057 L75.2308709,117.881057 L75.2308709,119.869335 Z" id="Fill-5" fill="#FFFFFF"></path>
                <path d="M100.281715,118.080837 C99.563564,117.676875 98.8685407,117.472216 98.2168081,117.472216 C97.3675988,117.472216 96.5450756,117.730419 95.7711802,118.238495 C95.3809709,118.494913 94.999657,118.820343 94.6302035,119.211811 L94.6302035,117.880938 L91.4848081,117.880938 L91.4848081,134.834254 L94.6302035,134.834254 L94.6302035,128.927128 C94.6302035,126.233849 94.7511802,124.435356 94.9889826,123.582216 C95.2890523,122.510141 95.7195872,121.71947 96.2699128,121.231622 C96.8048198,120.756862 97.3314244,120.526027 97.882343,120.526027 C98.0311919,120.526027 98.3016105,120.566482 98.748157,120.759837 L99.1697965,120.942482 L100.766808,118.353318 L100.281715,118.080837 Z" id="Fill-7" fill="#FFFFFF"></path>
                <path d="M42.7868651,92.0912646 C38.7566791,95.5109608 33.553493,97.5789608 27.8741093,97.5789608 C15.1205512,97.5789608 4.7456093,87.1699481 4.7456093,74.3722646 C4.7456093,69.3920494 6.86922558,65.4303658 9.32671395,60.8445937 C12.6589116,54.6286949 16.4346907,47.5840494 16.4346907,36.0089608 C16.4346907,29.6829987 21.567307,24.5344165 27.8741093,24.5344165 C34.1815047,24.5344165 39.3135279,29.6829987 39.3135279,36.0089608 C39.3135279,41.4621506 40.1574,45.9021633 41.3920744,49.7323658 C43.550086,50.1137203 45.5966093,50.9519861 47.3970279,52.1841 C45.4987605,47.841657 44.059493,42.8287203 44.059493,36.0089608 C44.059493,28.3307076 38.7157605,21.8845684 31.564493,20.205062 C32.4243767,17.3886316 33.9917372,14.6132519 36.7854698,12.7100494 C37.5083651,12.2174418 37.6963535,11.2310367 37.2053302,10.5058089 C36.715493,9.78058101 35.7316674,9.59258101 35.0087721,10.0839987 C31.3029698,12.6065304 29.3507372,16.2314797 28.3568302,19.7862266 C28.1961209,19.7814671 28.0360047,19.7737329 27.8741093,19.7737329 C18.9502953,19.7737329 11.6905047,27.0569481 11.6905047,36.0089608 C11.6905047,46.384657 8.36423721,52.5898468 5.14767907,58.5903785 C2.50101628,63.5283532 0.000237209302,68.192657 0.000237209302,74.3722646 C0.000237209302,89.7930241 12.5047256,102.339644 27.8741093,102.339644 C35.1789698,102.339644 41.8332837,99.5012013 46.8081558,94.8719987 C46.508086,94.7494418 46.2163186,94.6054671 45.9459,94.4150873 C45.1376093,93.8475177 44.0482256,93.0598215 42.7868651,92.0912646" id="Fill-9" fill="#B9BF33"></path>
                <g id="Group-13" transform="translate(47.441860, 0.240354)">
                    <mask id="mask-2" fill="white">
                        <use xlink:href="#path-1"></use>
                    </mask>
                    <g id="Clip-12"></g>
                    <path d="M48.6475953,54.5569456 C45.1161419,47.9692114 41.4643047,41.1565911 41.4643047,29.7480848 C41.4643047,21.1982494 35.3294791,14.0613886 27.2442,12.5234772 C27.9510837,9.13709747 29.538014,5.55736329 32.9200256,3.25495823 C33.6429209,2.7617557 33.8326884,1.77535063 33.3404791,1.05012278 C32.8494558,0.32608481 31.8668163,0.135705063 31.1433279,0.628312658 C26.7786767,3.60180633 24.8489791,8.09952785 24.0513628,12.2135152 C24.0276419,12.2135152 24.0039209,12.2117304 23.980793,12.2117304 C14.340014,12.2117304 6.49846744,20.0785785 6.49846744,29.7480848 C6.49846744,39.888781 3.61163023,46.3961987 0.489955814,52.3443759 C0.665490698,52.4764519 0.846362791,52.6001987 1.01656047,52.7394139 C2.7819907,51.2919329 4.8474907,50.2656671 7.05413023,49.7165405 C9.37818837,44.4709835 11.2426535,38.2271228 11.2426535,29.7480848 C11.2426535,22.7034392 16.9576186,16.9724139 23.980793,16.9724139 C31.0051535,16.9724139 36.7177465,22.7034392 36.7177465,29.7480848 C36.7177465,42.3547937 40.836293,50.0342367 44.4673744,56.8123506 C47.1733395,61.856819 49.506293,66.2135405 49.506293,71.7202747 C49.506293,85.8399076 38.055607,97.3299203 23.980793,97.3299203 C17.6935605,97.3299203 11.9335256,95.0322747 7.47992093,91.2359835 C5.90722326,92.4698823 4.55097907,93.4562873 3.58138605,94.1363 C8.96663023,99.0736797 16.1285721,102.090009 23.980793,102.090009 C40.6720256,102.090009 54.2522581,88.4647684 54.2522581,71.7202747 C54.2522581,65.0135532 51.5285023,59.9345785 48.6475953,54.5569456" id="Fill-11" fill="#97C93C" mask="url(#mask-2)"></path>
                </g>
                <path d="M38.7075174,55.8535506 C33.7089244,55.8535506 29.64375,59.9330316 29.64375,64.9483481 C29.64375,72.6551582 40.9799826,82.9439937 48.4580058,88.401943 C55.9366221,82.9433987 67.2722616,72.6545633 67.2722616,64.9483481 C67.2722616,59.9330316 63.2070872,55.8535506 58.2079012,55.8535506 C54.8330058,55.8535506 51.7593663,57.7168924 50.1837035,60.7147785 C49.8456802,61.3579051 49.1820872,61.7594873 48.4580058,61.7594873 C47.7345174,61.7594873 47.0703314,61.3579051 46.7329012,60.7147785 C45.1572384,57.7168924 42.0818198,55.8535506 38.7075174,55.8535506 M48.4580058,92.7622342 C48.0666105,92.7622342 47.6758081,92.6438418 47.339564,92.4088418 C43.7333895,89.8773861 25.74225,76.6584873 25.74225,64.9483481 C25.74225,57.7751962 31.5586221,51.9406519 38.7075174,51.9406519 C42.5004942,51.9406519 46.0277965,53.585057 48.4580058,56.3693608 C50.8882151,53.585057 54.4155174,51.9406519 58.2079012,51.9406519 C65.3567965,51.9406519 71.1743547,57.7751962 71.1743547,64.9483481 C71.1743547,76.6567025 53.1826221,89.8773861 49.5758547,92.4088418 C49.2407965,92.6438418 48.8494012,92.7622342 48.4580058,92.7622342" id="Fill-14" fill="#E38EA5"></path>
            </g>
        </g>
    </g>
</svg>