<?xml version="1.0" encoding="UTF-8" standalone="no"?>
<svg width="78px" height="107px" viewBox="0 0 78 107" version="1.1" xmlns="http://www.w3.org/2000/svg" xmlns:xlink="http://www.w3.org/1999/xlink">
    <!-- Generator: sketchtool 39.1 (31720) - http://www.bohemiancoding.com/sketch -->
    <title>9FF0F5BE-5294-4D14-9983-C1E560BFD530</title>
    <desc>Created with sketchtool.</desc>
    <defs>
        <polygon id="path-1" points="41.6108643 77.4725599 41.6108643 0.269080169 0.375791352 0.269080169 0.375791352 77.4725599 41.6108643 77.4725599"></polygon>
    </defs>
    <g id="All-Page" stroke="none" stroke-width="1" fill="none" fill-rule="evenodd">
        <g id="Pear-Landing-All-4" transform="translate(-923.000000, -5567.000000)">
            <g id="pear_logo_kit_black" transform="translate(923.000000, 5567.000000)">
                <path d="M11.1685354,98.1418447 C10.7678186,98.8497603 10.2242811,99.4077857 9.55202306,99.800119 C8.19295194,100.594718 6.55005874,100.576208 5.1591486,99.8014734 C4.46096447,99.4127519 3.91788184,98.8809122 3.54491051,98.2194987 C3.16921013,97.5535705 2.97908572,96.7901232 2.97908572,95.9494734 C2.97908572,94.6528321 3.39390261,93.6017941 4.24855275,92.7354101 C5.10138353,91.871735 6.12250624,91.4518616 7.37059565,91.4518616 C8.16202261,91.4518616 8.9020523,91.6473511 9.57067163,92.0338152 C10.2383813,92.4184734 10.7773703,92.9692751 11.1739935,93.6690641 C11.5715263,94.3711105 11.7730218,95.1232709 11.7730218,95.9052287 C11.7730218,96.6795114 11.569707,97.4321232 11.1685354,98.1418447 M7.49977109,89.1452667 C6.44862873,89.1452667 5.48026781,89.3737139 4.62152408,89.8238363 C4.0716188,90.1127814 3.55946549,90.4956338 3.09052227,90.9692329 L3.09052227,89.4563342 L0.711238124,89.4563342 L0.711238124,106.730739 L3.09052227,106.730739 L3.09052227,100.871022 C3.58903029,101.334689 4.12665481,101.709414 4.69748287,101.990684 C5.56122988,102.415976 6.51912941,102.630878 7.54434571,102.630878 C9.36735677,102.630878 10.9461171,101.965853 12.2351424,100.652959 C13.5223483,99.3432245 14.1745933,97.7291949 14.1745933,95.8555662 C14.1745933,94.0167013 13.5159805,92.4229882 12.2169487,91.1164143 C10.9160975,89.8089376 9.32914995,89.1452667 7.49977109,89.1452667" id="Fill-1" fill="#393939"></path>
                <path d="M26.4255187,94.2646072 C26.7107053,93.4907759 27.0895896,92.8916662 27.5553489,92.4790165 C28.3426823,91.7805819 29.2587363,91.4410713 30.3567275,91.4410713 C31.0162499,91.4410713 31.6539399,91.5810291 32.2520586,91.8573329 C32.8474482,92.1318308 33.3300367,92.4966241 33.6870885,92.9390713 C33.9645428,93.2839996 34.1946934,93.7282527 34.3739015,94.2646072 L26.4255187,94.2646072 Z M37.0442853,96.0064046 C37.0283658,94.2745397 36.5475966,92.8049827 35.616078,91.6379152 C34.3034009,89.9841557 32.5267838,89.1457633 30.3344402,89.1457633 C28.2007713,89.1457633 26.4728224,89.9660966 25.1983521,91.5832865 C24.1990619,92.84697 23.6923667,94.307046 23.6923667,95.9219785 C23.6923667,97.6389447 24.2895756,99.1983456 25.4671644,100.557291 C26.6597629,101.932941 28.3276725,102.631375 30.4240442,102.631375 C31.36375,102.631375 32.2211293,102.486451 32.97253,102.200215 C33.7248405,101.913076 34.4111987,101.48959 35.0134109,100.940143 C35.6119844,100.392953 36.1455153,99.6687844 36.5980842,98.7870502 L36.7804763,98.4303835 L34.7655214,97.3793456 L34.5672099,97.7075692 C34.114641,98.4547633 33.6948208,98.9969869 33.3195753,99.3206958 C32.9484233,99.6403414 32.4890318,99.9008435 31.9545912,100.096333 C31.4169667,100.292274 30.8570549,100.391147 30.2898655,100.391147 C29.1127316,100.391147 28.1525579,99.9929447 27.3538535,99.1721599 C26.6352014,98.4339954 26.2358492,97.5292359 26.1380579,96.4154426 L37.047924,96.4154426 L37.0442853,96.0064046 Z" id="Fill-3" fill="#393939"></path>
                <path d="M57.2360431,98.2194536 C56.8621621,98.8804156 56.3195343,99.4131582 55.6245341,99.8018797 C54.9240758,100.19331 54.1735847,100.391508 53.3939836,100.391508 C52.6234795,100.391508 51.8930015,100.192407 51.2198337,99.8000738 C50.5471208,99.407289 50.0026736,98.8492637 49.6024117,98.1417996 C49.2007853,97.4320781 48.9970156,96.6794662 48.9970156,95.9051835 C48.9970156,95.1236772 49.1989659,94.3715169 49.5969536,93.6694705 C49.9926671,92.96923 50.5334755,92.4184283 51.20164,92.03377 C51.8716239,91.6473059 52.6130181,91.4518165 53.4048999,91.4518165 C54.6548087,91.4518165 55.6772959,91.8712384 56.5305815,92.7358165 C57.3865962,93.6017489 57.8018679,94.6536899 57.8018679,95.9494283 C57.8018679,96.7896266 57.6112887,97.5530738 57.2360431,98.2194536 L57.2360431,98.2194536 Z M57.7013476,90.964673 C57.2360431,90.4928797 56.7247995,90.1109304 56.1735297,89.8233397 C55.3106924,89.3736688 54.3359637,89.1452215 53.277089,89.1452215 C51.4454359,89.1452215 49.8562142,89.8088924 48.5549081,91.1163692 C47.2545118,92.422943 46.5949893,94.0171076 46.5949893,95.8555211 C46.5949893,97.7296013 47.2485988,99.3440823 48.5367144,100.653365 C49.8271042,101.965808 51.4067742,102.630833 53.2316047,102.630833 C54.2572758,102.630833 55.2179044,102.41593 56.0861998,101.991091 C56.6602118,101.709369 57.2014751,101.333741 57.7013476,100.869622 L57.7013476,102.32112 L60.0587993,102.32112 L60.0587993,89.4558376 L57.7013476,89.4558376 L57.7013476,90.964673 Z" id="Fill-5" fill="#393939"></path>
                <path d="M76.9151019,89.6074435 C76.3642869,89.3008907 75.8312108,89.1455827 75.3313383,89.1455827 C74.680003,89.1455827 74.0491356,89.3415236 73.4555654,89.7270848 C73.1562787,89.9216713 72.8638146,90.1686291 72.5804473,90.4657008 L72.5804473,89.4557473 L70.1679596,89.4557473 L70.1679596,102.32103 L72.5804473,102.32103 L72.5804473,97.8383169 C72.5804473,95.7944814 72.6732353,94.4296671 72.8556274,93.7822494 C73.085778,92.9686882 73.4159941,92.3686755 73.8380885,91.9984646 C74.2483569,91.6381861 74.6522576,91.4630131 75.0748068,91.4630131 C75.1889724,91.4630131 75.3963808,91.4937135 75.7388777,91.6404435 L76.0622711,91.7790468 L77.2871635,89.8142198 L76.9151019,89.6074435 Z" id="Fill-7" fill="#393939"></path>
                <path d="M32.8171101,69.8848603 C29.7259966,72.4799489 25.7352034,74.0492823 21.3791712,74.0492823 C11.5973159,74.0492823 3.63983626,66.1502443 3.63983626,56.438527 C3.63983626,52.6592148 5.26862933,49.6528308 7.15349905,46.1728477 C9.70926232,41.4558181 12.6052482,36.1098814 12.6052482,27.3259489 C12.6052482,22.5253962 16.5419151,18.618316 21.3791712,18.618316 C26.2168822,18.618316 30.1530942,22.5253962 30.1530942,27.3259489 C30.1530942,31.4641852 30.8003359,34.8335565 31.7473192,37.7401641 C33.4024932,38.0295608 34.9721566,38.6656916 36.3530602,39.6007 C34.8971075,36.3053709 33.7932034,32.5012274 33.7932034,27.3259489 C33.7932034,21.4991895 29.6946124,16.6074384 24.2096597,15.3329194 C24.8691822,13.1956283 26.0713324,11.089489 28.2140982,9.64521477 C28.7685519,9.27139198 28.9127371,8.52284346 28.5361271,7.97249325 C28.1604267,7.42214304 27.405842,7.27947637 26.8513883,7.6523962 C24.0090739,9.56665781 22.5117305,12.3175059 21.7494135,15.0150797 C21.626151,15.0114679 21.5033434,15.0055987 21.3791712,15.0055987 C14.5346925,15.0055987 8.96650357,20.5325776 8.96650357,27.3259489 C8.96650357,35.1997042 6.41528873,39.9086072 3.94821987,44.4622021 C1.9182552,48.2094595 0.000181937232,51.7490376 0.000181937232,56.438527 C0.000181937232,68.1408055 9.59100312,77.6619996 21.3791712,77.6619996 C26.9819283,77.6619996 32.0857225,75.5080038 35.9014011,71.9950629 C35.6712505,71.9020586 35.4474677,71.7928013 35.2400592,71.6483287 C34.6201081,71.2176198 33.7845614,70.6198646 32.8171101,69.8848603" id="Fill-9" fill="#B9BF33"></path>
                <g id="Group-13" transform="translate(36.387446, 0.182397)">
                    <mask id="mask-2" fill="white">
                        <use xlink:href="#path-1"></use>
                    </mask>
                    <g id="Clip-12"></g>
                    <path d="M37.3122333,41.40137 C34.6036428,36.4021675 31.8027191,31.2323068 31.8027191,22.5747878 C31.8027191,16.0866148 27.0973674,10.6706992 20.8960369,9.50363165 C21.4382098,6.93382574 22.6553699,4.21728987 25.24934,2.47007468 C25.8037937,2.09580042 25.9493435,1.3472519 25.5718238,0.796901688 C25.1952137,0.24745443 24.4415387,0.102981857 23.8866301,0.476804641 C20.5389851,2.73328565 19.0589257,6.14645021 18.4471618,9.26841224 C18.428968,9.26841224 18.4107743,9.26705781 18.3930354,9.26705781 C10.9986515,9.26705781 4.98426144,15.2369354 4.98426144,22.5747878 C4.98426144,30.2702097 2.77008532,35.2084629 0.375791352,39.7223278 C0.510424904,39.8225557 0.649152043,39.9164629 0.779692007,40.0221084 C2.13375986,38.9236654 3.7179783,38.1448679 5.4104494,37.7281549 C7.19297943,33.747484 8.62300607,29.009235 8.62300607,22.5747878 C8.62300607,17.2288511 13.0063288,12.8797751 18.3930354,12.8797751 C23.7806517,12.8797751 28.1621551,17.2288511 28.1621551,22.5747878 C28.1621551,32.141581 31.3210403,37.9692435 34.1060445,43.1129186 C36.1814934,46.9409903 37.9708461,50.2471549 37.9708461,54.4260241 C37.9708461,65.1409228 29.1882811,73.8602941 18.3930354,73.8602941 C13.5707891,73.8602941 9.15289826,72.1166907 5.73702673,69.2358173 C4.53078289,70.1721802 3.49055676,70.9207287 2.74688833,71.4367667 C6.87731833,75.1835726 12.3704582,77.4725599 18.3930354,77.4725599 C31.1950487,77.4725599 41.6109553,67.1328384 41.6109553,54.4260241 C41.6109553,49.3365262 39.521861,45.4822688 37.3122333,41.40137" id="Fill-11" fill="#97C93C" mask="url(#mask-2)"></path>
                </g>
                <path d="M29.6882901,42.3853186 C25.8544178,42.3853186 22.7364684,45.4810949 22.7364684,49.2870443 C22.7364684,55.1354747 31.4312488,62.9433143 37.16682,67.0851624 C42.9028461,62.9428629 51.5971715,55.1350232 51.5971715,49.2870443 C51.5971715,45.4810949 48.4792222,42.3853186 44.6448951,42.3853186 C42.0563831,42.3853186 39.6989314,43.7993439 38.4904134,46.0743354 C38.2311528,46.5623819 37.7221834,46.8671287 37.16682,46.8671287 C36.6119114,46.8671287 36.1024872,46.5623819 35.8436815,46.0743354 C34.6351634,43.7993439 32.2763472,42.3853186 29.6882901,42.3853186 M37.16682,70.3940359 C36.8666236,70.3940359 36.566882,70.304192 36.3089859,70.1258586 C33.5430852,68.2048249 19.7440558,58.173462 19.7440558,49.2870443 C19.7440558,43.8435886 24.2051568,39.4159557 29.6882901,39.4159557 C32.5974664,39.4159557 35.3028731,40.6638376 37.16682,42.7767489 C39.0307669,40.6638376 41.7361736,39.4159557 44.6448951,39.4159557 C50.1280284,39.4159557 54.590039,43.8435886 54.590039,49.2870443 C54.590039,58.1721076 40.7905548,68.2048249 38.0241992,70.1258586 C37.7672129,70.304192 37.4670164,70.3940359 37.16682,70.3940359" id="Fill-14" fill="#E38EA5"></path>
            </g>
        </g>
    </g>
</svg>