<?xml version="1.0" encoding="UTF-8" standalone="no"?>
<svg width="24px" height="20px" viewBox="0 0 24 20" version="1.1" xmlns="http://www.w3.org/2000/svg" xmlns:xlink="http://www.w3.org/1999/xlink">
    <!-- Generator: sketchtool 41 (35326) - http://www.bohemiancoding.com/sketch -->
    <title>2E2CCACF-1756-445C-B118-D5F32DBE377C</title>
    <desc>Created with sketchtool.</desc>
    <defs></defs>
    <g id="All-Page" stroke="none" stroke-width="1" fill="none" fill-rule="evenodd">
        <g id="Pear-Landing-All-4-Copy" transform="translate(-490.000000, -2397.000000)" fill="#FFFFFF">
            <g id="Group-16" transform="translate(464.000000, 2385.000000)">
                <path d="M38,12 C33.994,12 30.733,15.141 30.521,19.092 C27.951,19.555 26,21.798 26,24.5 C26,27.537 28.463,30 31.5,30 C31.5,30 29.6304259,27.4720808 29.3974646,27.2964954 C28.5492887,26.6572161 28,25.6415838 28,24.5 C28,21.703 30.479,20.667 32.433,20.78 C32.266,16.562 34.641,14 38,14 C41.453,14 43.891,16.797 43.567,20.78 C45.312,20.734 48,21.531 48,24.5 C48,25.7282229 47.7347082,26.6717118 46.7749023,27.2964954 C46.5410044,27.4487508 44.5,30 44.5,30 C47.537,30 50,27.537 50,24.5 C50,21.798 48.049,19.555 45.479,19.092 C45.267,15.141 42.006,12 38,12 Z M31.3632812,25.0766304 L36.3408203,25.0766304 L36.3408203,20.2866508 L39.6591797,20.2866508 L39.6591797,25.0766304 L44.6367188,25.0766304 L38,31.7133492 L31.3632812,25.0766304 Z" id="report_icon"></path>
            </g>
        </g>
    </g>
</svg>