<?xml version="1.0" encoding="UTF-8" standalone="no"?>
<svg width="126px" height="25px" viewBox="0 0 126 25" version="1.1" xmlns="http://www.w3.org/2000/svg" xmlns:xlink="http://www.w3.org/1999/xlink">
    <!-- Generator: sketchtool 41 (35326) - http://www.bohemiancoding.com/sketch -->
    <title>53E6E602-00EB-45B6-9D78-26A8D81AACA1</title>
    <desc>Created with sketchtool.</desc>
    <defs>
        <linearGradient x1="19.2147947%" y1="-35.1571758%" x2="69.3023416%" y2="93.5367562%" id="linearGradient-1">
            <stop stop-color="#19A3B4" offset="0%"></stop>
            <stop stop-color="#5BC3AF" offset="34.816763%"></stop>
            <stop stop-color="#C9F7A6" offset="92.2336229%"></stop>
            <stop stop-color="#D7FEA5" offset="100%"></stop>
        </linearGradient>
        <path d="M16.1448059,7.77197532 L2.49535436,0.232394553 C2.10833097,0.0196770939 1.75137386,-0.0298070281 1.4622258,0.0608067538 L12.6424041,11.2911318 L16.1448059,7.77197532" id="path-2"></path>
        <linearGradient x1="-14.698314%" y1="-114.321644%" x2="74.8444046%" y2="114.156353%" id="linearGradient-4">
            <stop stop-color="#FC227C" offset="0%"></stop>
            <stop stop-color="#FEEB7B" offset="100%"></stop>
        </linearGradient>
        <linearGradient x1="28.1511582%" y1="-14.8137139%" x2="48.1878808%" y2="82.8944571%" id="linearGradient-5">
            <stop stop-color="#0E4DA0" offset="0%"></stop>
            <stop stop-color="#6BFED4" offset="100%"></stop>
        </linearGradient>
        <path d="M1.46158609,0.0608067538 C1.04641554,0.191264894 0.777738145,0.613486558 0.777738145,1.25228159 L0.780296977,21.3569734 C0.780296977,21.9886993 1.04065817,22.4044945 1.44367427,22.5433071 L12.6424041,11.2930598 L1.46158609,0.0608067538" id="path-6"></path>
        <linearGradient x1="132.244588%" y1="16.465744%" x2="5.95853392%" y2="126.310354%" id="linearGradient-8">
            <stop stop-color="#FC472E" offset="0%"></stop>
            <stop stop-color="#FC472E" offset="0.331892433%"></stop>
            <stop stop-color="#893CD8" offset="100%"></stop>
        </linearGradient>
        <path d="M1.44367427,22.5433071 C1.73474145,22.6422753 2.09873535,22.5960044 2.49535436,22.3775031 L16.1607986,14.8276399 L12.6424041,11.2930598 L1.44367427,22.5433071" id="path-9"></path>
    </defs>
    <g id="All-Page" stroke="none" stroke-width="1" fill="none" fill-rule="evenodd">
        <g id="Pear-Landing-All-4-Copy" transform="translate(-692.000000, -729.000000)">
            <g id="Group-19" transform="translate(403.000000, 727.000000)">
                <g id="soon_google_play" transform="translate(289.000000, 2.000000)">
                    <g id="Rectangle-1-+-Google-Play-Icon-+-Imported-Layers-+-GET-IT-ON">
                        <g id="Rectangle-1-+-Google-Play-Icon-+-Imported-Layers">
                            <g id="Google-Play-Icon">
                                <mask id="mask-3" fill="white">
                                    <use xlink:href="#path-2"></use>
                                </mask>
                                <use id="Fill-1" fill="url(#linearGradient-1)" xlink:href="#path-2"></use>
                                <path d="M16.1627177,14.8276399 L20.8223514,12.2538229 C21.7672002,11.7300624 21.7672002,10.8779073 20.8223514,10.3554321 L16.1454456,7.77197532 L12.6424041,11.2911318 L16.1627177,14.8276399" id="Fill-2" fill="url(#linearGradient-4)"></path>
                                <mask id="mask-7" fill="white">
                                    <use xlink:href="#path-6"></use>
                                </mask>
                                <use id="Fill-3" fill="url(#linearGradient-5)" xlink:href="#path-6"></use>
                                <mask id="mask-10" fill="white">
                                    <use xlink:href="#path-9"></use>
                                </mask>
                                <use id="Fill-4" fill="url(#linearGradient-8)" xlink:href="#path-9"></use>
                            </g>
                            <g id="Imported-Layers" transform="translate(26.316456, 1.612903)" fill="#FFFFFF">
                                <path d="M61.5428425,14.6873432 L60.5180702,15.6767473 C60.2812424,15.8099238 60.0456845,15.9645385 59.8107615,16.074328 C59.0990083,16.4049955 58.3751915,16.4881496 57.7320104,16.4881496 C57.0475591,16.4881496 55.9745324,16.4426747 54.8799182,15.6325717 C53.3592679,14.5366263 52.6944993,12.6526658 52.6944993,11.0110215 C52.6944993,7.61209677 55.3986536,5.94511649 57.6043901,5.94511649 C58.3751915,5.94511649 59.1669455,6.14260753 59.8107615,6.55902778 C60.8812485,7.28337814 61.1580767,8.22470878 61.311729,8.72883065 L56.2748529,10.8109319 L54.6253124,10.9421595 C55.1592861,13.7291219 57.0018443,15.3499776 59.0380553,15.3499776 C60.0552084,15.3499776 60.8101367,15.0102151 61.5028421,14.6600582 C61.5028421,14.6600582 61.6418911,14.5859991 61.5428425,14.6873432 L61.5428425,14.6873432 Z M58.5040817,9.14395161 C58.9129747,8.99193548 59.1256752,8.86070789 59.1256752,8.55537634 C59.1256752,7.6796595 58.1574115,6.66816756 57.0018443,6.66816756 C56.1459627,6.66816756 54.5389623,7.35029122 54.5389623,9.71888441 C54.5389623,10.0885305 54.5821374,10.4822133 54.6037249,10.8758961 L58.5040817,9.14395161 L58.5040817,9.14395161 Z" id="Fill-1"></path>
                                <path d="M51.0113077,14.5177867 C51.0113077,15.3694668 51.1598807,15.5019937 51.8640148,15.5689068 C52.2310026,15.6130824 52.5967206,15.6325717 52.958629,15.6767473 L52.16624,16.159431 L48.390329,16.159431 C48.885572,15.5019937 48.9706523,15.4363799 48.9706523,14.9985215 L48.9706523,14.5093414 L48.9623982,1.4749328 L47.2950798,1.4749328 L48.9001754,0.683669355 L51.9643332,0.683669355 C51.3001995,1.07735215 51.1014674,1.31706989 51.0163872,2.08429659 L51.0113077,14.5177867" id="Fill-2"></path>
                                <path d="M45.1553757,7.02092294 C45.6474442,7.43474462 46.6741212,8.31306004 46.6741212,9.97874104 C46.6741212,11.6021953 45.779509,12.3674731 44.8772777,13.0918235 C44.6004495,13.3770161 44.2766367,13.6862455 44.2766367,14.1643817 C44.2766367,14.649664 44.6004495,14.9127688 44.8334677,15.1089606 L45.6074438,15.7202733 C46.5484056,16.5329749 47.4061921,17.2781138 47.4061921,18.7917787 C47.4061921,20.853741 45.4556962,22.9332437 41.7699448,22.9332437 C38.6651516,22.9332437 37.1641841,21.4202285 37.1641841,19.7980735 C37.1641841,19.008759 37.5483149,17.8907258 38.8156293,17.1247984 C40.1438966,16.2939068 41.9432799,16.1828181 42.9070991,16.1178539 C42.6061437,15.7202733 42.2626481,15.303853 42.2626481,14.624328 C42.2626481,14.252733 42.3718556,14.0312052 42.4772535,13.7700493 C42.2429654,13.7927867 42.0067726,13.8161738 41.7921672,13.8161738 C39.5197634,13.8161738 38.235306,12.0816308 38.235306,10.3724238 C38.235306,9.36418011 38.6848343,8.24549731 39.6080182,7.43474462 C40.8296178,6.40571237 42.2861404,6.22836022 43.4436124,6.22836022 L47.858895,6.22836022 L46.4861828,7.02092294 L45.1553757,7.02092294 L45.1553757,7.02092294 Z M43.6372652,16.7532034 C43.4613904,16.7298163 43.3559925,16.7298163 43.1439269,16.7298163 C42.9496392,16.7298163 41.7921672,16.7726927 40.8956502,17.0806228 C40.4213598,17.2579749 39.0505523,17.7822357 39.0505523,19.3394265 C39.0505523,20.8933692 40.5305672,22.0140009 42.8201141,22.0140009 C44.8772777,22.0140009 45.9693522,21.0051075 45.9693522,19.646707 C45.9693522,18.5286738 45.2626784,17.9387993 43.6372652,16.7532034 L43.6372652,16.7532034 Z M44.2531444,12.5877016 C44.7483875,12.0816308 44.7915625,11.3826165 44.7915625,10.9856855 C44.7915625,9.40900538 43.8728231,6.95336022 42.0918528,6.95336022 C41.5362916,6.95336022 40.9343808,7.23855287 40.5927901,7.6796595 C40.2302467,8.13635753 40.1216742,8.72883065 40.1216742,9.29856631 C40.1216742,10.7667563 40.958508,13.2016129 42.7991615,13.2016129 C43.3363098,13.2016129 43.9140934,12.9346102 44.2531444,12.5877016 L44.2531444,12.5877016 Z" id="Fill-3"></path>
                                <path d="M31.8714323,16.4426747 C28.4656837,16.4426747 26.6434431,13.7291219 26.6434431,11.2721774 C26.6434431,8.40141129 28.9342599,5.94511649 32.1927054,5.94511649 C35.3425784,5.94511649 37.3152967,8.46832437 37.3152967,11.1175627 C37.3152967,13.7050851 35.3654358,16.4426747 31.8714323,16.4426747 L31.8714323,16.4426747 Z M34.5508244,14.6691532 C35.0689249,13.9675403 35.1946404,13.0918235 35.1946404,12.2381944 C35.1946404,10.3074597 34.2955837,6.62529122 31.6384141,6.62529122 C30.9317403,6.62529122 30.2199871,6.9078853 29.7069661,7.36913082 C28.8701322,8.13635753 28.7209244,9.10042563 28.7209244,10.0463038 C28.7209244,12.2122088 29.7672841,15.7845878 32.3641357,15.7845878 C33.2022394,15.7845878 34.0574861,15.3694668 34.5508244,14.6691532 L34.5508244,14.6691532 Z" id="Fill-4"></path>
                                <path d="M20.4687777,16.4426747 C17.0623942,16.4426747 15.2433282,13.7291219 15.2433282,11.2721774 C15.2433282,8.40141129 17.5347799,5.94511649 20.7919556,5.94511649 C23.9399238,5.94511649 25.9107373,8.46832437 25.9107373,11.1175627 C25.9107373,13.7050851 23.9634161,16.4426747 20.4687777,16.4426747 L20.4687777,16.4426747 Z M23.1488047,14.6691532 C23.6630956,13.9675403 23.7913509,13.0918235 23.7913509,12.2381944 C23.7913509,10.3074597 22.8897545,6.62529122 20.2351246,6.62529122 C19.5259111,6.62529122 18.821777,6.9078853 18.3074861,7.36913082 C17.4693824,8.13635753 17.3208095,9.10042563 17.3208095,10.0463038 C17.3208095,12.2122088 18.3716137,15.7845878 20.9640208,15.7845878 C21.8002197,15.7845878 22.6541966,15.3694668 23.1488047,14.6691532 L23.1488047,14.6691532 Z" id="Fill-5"></path>
                                <path d="M13.8814097,15.6819444 L11.0089998,16.3549731 C9.84517859,16.5427195 8.80008869,16.7077285 7.69341087,16.7077285 C2.15303757,16.7077285 0.0419051842,12.5350806 0.0419051842,9.26933244 C0.0419051842,5.2811828 3.03304644,1.58342294 8.15563775,1.58342294 C9.2394582,1.58342294 10.2820084,1.74648297 11.2318592,2.01153674 C12.7372712,2.44419803 13.4414053,2.97755376 13.8814097,3.29003136 L12.2128215,4.91153674 L11.5093223,5.07264785 L12.0109147,4.2547491 C11.3315428,3.57587366 10.0826413,2.32271505 7.71245868,2.32271505 C4.54353785,2.32271505 2.15303757,4.7874552 2.15303757,8.38581989 C2.15303757,12.2505376 4.88258889,15.8859319 9.26041079,15.8859319 C10.546773,15.8859319 11.2090019,15.6215278 11.8102778,15.374664 L11.8102778,12.0614919 L8.77723132,12.2284498 L10.3848666,11.3449373 L14.6414174,11.3449373 L14.1207772,11.8575045 C13.9804584,11.9796371 13.9614105,12.0212142 13.9220451,12.1849238 C13.9010925,12.3720206 13.8814097,12.9670923 13.8814097,13.1762769 L13.8814097,15.6819444" id="Fill-6"></path>
                                <path d="M67.7187777,14.7808916 L67.7187777,20.3645609 L66.6349573,20.3645609 L66.6349573,6.15625 L67.7187777,6.15625 L67.7187777,7.77450717 C68.4248166,6.72858423 69.7149883,5.89964158 71.2134161,5.89964158 C73.9010622,5.89964158 75.7112392,7.98564068 75.7112392,11.2877688 C75.7112392,14.5678091 73.9010622,16.6973342 71.2134161,16.6973342 C69.7987987,16.6973342 68.5314843,15.9508961 67.7187777,14.7808916 L67.7187777,14.7808916 Z M74.546783,11.2877688 C74.546783,8.79899194 73.2788337,6.90073925 71.0305571,6.90073925 C69.6343526,6.90073925 68.299101,8.02331989 67.7187777,9.00232975 L67.7187777,13.5504704 C68.299101,14.5314292 69.6343526,15.6949373 71.0305571,15.6949373 C73.2788337,15.6949373 74.546783,13.7804435 74.546783,11.2877688 L74.546783,11.2877688 Z" id="Fill-7"></path>
                                <polygon id="Fill-8" points="77.1912541 2.23306452 78.2744397 2.23306452 78.2744397 16.4413754 77.1912541 16.4413754"></polygon>
                                <path d="M90.4358321,19.4459677 C90.6675804,19.5518593 91.06314,19.6168235 91.3139361,19.6168235 C91.9768,19.6168235 92.4383919,19.3394265 92.8529993,18.359767 L93.6434834,16.5271281 L89.3742341,6.15625 L90.5831351,6.15625 L94.2453943,15.1433916 L97.8720975,6.15625 L99.0981416,6.15625 L93.891105,18.7034274 C93.3507821,19.9962142 92.5006148,20.6179211 91.332984,20.6179211 C90.9825042,20.6179211 90.5202774,20.5542563 90.2497984,20.4691532 L90.4358321,19.4459677" id="Fill-9"></path>
                                <path d="M87.2700859,16.4108423 C87.1977042,16.0541891 87.1431005,15.7397625 87.1031001,15.4773073 C87.0700839,15.2155018 87.051036,14.9478495 87.051036,14.6756496 C86.6796037,15.2336918 86.1532492,15.6981855 85.4808615,16.0639337 C84.8078388,16.4322805 84.1684673,16.6128808 83.2916331,16.6128808 C82.2357494,16.6128808 81.4160586,16.3471774 80.8312908,15.8079749 C80.2484278,15.269422 79.9550915,14.5398746 79.9550915,13.6167339 C79.9550915,12.6948925 80.3798577,11.9465054 81.2268504,11.3741711 C82.073843,10.7992384 83.1684572,10.5133961 84.5233915,10.5133961 L87.051036,10.5133961 L87.051036,9.23555108 C87.051036,8.49950717 86.8059542,7.92067652 86.3164255,7.50100806 C85.8249919,7.08068996 85.1354612,6.86825717 84.2414839,6.86825717 C83.4243328,6.86825717 82.761469,7.0625 82.256702,7.4405914 C81.7563795,7.82647849 81.5043135,8.3046147 81.5043135,8.88084677 L80.3950959,8.88084677 L80.3722386,8.82562724 C80.3322382,8.04865591 80.6795433,7.3671819 81.4179634,6.77860663 C82.1532089,6.190681 83.1163932,5.89509409 84.301802,5.89509409 C85.4834012,5.89509409 86.4396013,6.18613351 87.1602435,6.76691308 C87.8802507,7.34184588 88.2415242,8.17273746 88.2415242,9.25893817 L88.2415242,14.3326389 C88.2415242,14.6970878 88.2586673,15.0491935 88.3031122,15.3922043 C88.3488269,15.7358647 88.4218435,16.0788754 88.5189873,16.4108423 L87.2700859,16.4108423 L87.2700859,16.4108423 Z M83.4243328,15.6026882 C84.344977,15.6026882 85.006571,15.3922043 85.6827683,14.9757841 C86.3545211,14.5619624 86.8116685,14.0221102 87.051036,13.3685708 L87.051036,11.3936604 L84.5113279,11.3936604 C83.5411594,11.3936604 82.7379767,11.6132392 82.1062243,12.0562948 C81.473202,12.4980511 81.1525639,13.0327061 81.1525639,13.6544131 C81.1525639,14.2410394 81.3557405,14.7100806 81.7595541,15.0654346 C82.1646376,15.4246864 82.718294,15.6026882 83.4243328,15.6026882 L83.4243328,15.6026882 Z" id="Fill-10"></path>
                            </g>
                        </g>
                    </g>
                </g>
            </g>
        </g>
    </g>
</svg>